<svg width="48" height="48" viewBox="0 0 48 48" fill="none" xmlns="http://www.w3.org/2000/svg">
<g clip-path="url(#clip0_1275_254)">
<path d="M0 0V48H48V0H0Z" fill="black"/>
<path d="M23.1095 41.0491H25.0491L29.9548 1.50944H18.1963L23.1095 41.0491M38.8529 41.0491L46.4831 33.8717V22.8226L35.4567 41.0491H38.8529M1.50195 33.7132H1.5095L9.30573 41.0491H12.6944L1.50195 22.5509V33.7132ZM1.50195 1.50943V6.87548L16.3925 41.0491H20.2265L9.38875 1.50944H1.50195M46.4831 7.25284V1.50944H38.7699L27.9246 41.0491H31.7586L46.4831 7.25284Z" fill="#FFB50E"/>
<path d="M46.4831 33.8717L38.8529 41.0491H46.4906L46.4831 33.8717ZM9.30573 41.0491L1.5095 33.7132V41.0491H9.30573ZM18.1963 1.50943H9.38875L20.2265 41.0491H23.1095L18.1963 1.50943ZM1.50195 6.87547V22.5509L12.6944 41.0491H16.3925L1.50195 6.87547ZM38.7699 1.50943H29.9548L25.0491 41.0491H27.9246L38.7699 1.50943ZM46.4831 22.8226V7.25283L31.7586 41.0491H35.4567L46.4831 22.8226Z" fill="#FFF17A"/>
<path d="M2.70934 32.7321L1.3584 32.9736V44.8226H46.6414V33.2755C46.3735 33.2802 46.1043 33.2978 45.8339 33.3283L45.6905 32.1434L45.6075 32.1132L44.2942 32.6792L44.3999 34.1736L43.4942 34.2113V31.4491L42.2037 31.0415L42.2263 30.9359L41.7508 32.5887L40.9735 32.3623L40.9282 31.4113H37.6225V35.7811L5.4565 35.9774C5.32191 36 5.18606 36.0201 5.04895 36.0377L4.57348 33.3434C4.1536 33.441 3.7274 33.5091 3.29801 33.5472L3.55461 34.7925C3.2903 34.7672 3.02378 34.7773 2.76216 34.8226C2.7321 33.8658 2.71449 33.1689 2.70934 32.7321Z" fill="black"/>
<path d="M16.1647 7.1123C16.1654 7.11396 16.1658 7.11575 16.1658 7.11756C16.1658 7.11937 16.1654 7.12116 16.1647 7.12282C16.1527 7.12728 16.1404 7.1308 16.1279 7.13335C15.9993 7.18061 15.8877 7.26483 15.8069 7.37541V7.38067C15.7802 7.60769 15.7679 7.83617 15.7701 8.06475C15.7761 8.25268 15.7866 8.40177 15.8016 8.51203L15.8385 8.58044C15.8418 8.58257 15.8453 8.58433 15.849 8.5857C15.9392 8.69289 16.0638 8.76544 16.2016 8.79092C16.2045 8.87097 16.2281 8.94891 16.27 9.0172C16.2648 9.01838 16.2594 9.01838 16.2542 9.0172C16.0454 9.07859 15.8314 9.13823 15.6122 9.19611C15.4596 9.23996 15.3052 9.28206 15.1491 9.3224C14.9999 9.3682 14.8554 9.42811 14.7176 9.50133L14.7018 9.50659L14.3124 10.5064C14.2559 10.7173 14.1963 10.926 14.1335 11.1326C14.1115 11.2059 14.0922 11.2778 14.0756 11.3483C14.0378 11.6706 13.9781 12.0722 13.8967 12.5534C13.8917 12.7517 13.9129 12.9499 13.9599 13.1427C14.0689 13.5517 14.2958 13.9195 14.6124 14.2004C14.6252 14.214 14.6393 14.2264 14.6545 14.2373C14.7049 14.2767 14.7619 14.307 14.8229 14.3267C14.8554 14.3371 14.8889 14.3441 14.9228 14.3478C15.3614 14.3969 15.8053 14.3666 16.2331 14.2583C16.4096 14.2129 16.5821 14.153 16.7488 14.0794C17.0426 13.9504 17.3338 13.8154 17.6223 13.6742C17.9065 13.5391 18.1836 13.39 18.4537 13.2269C18.7274 13.0682 19.001 12.9121 19.2746 12.7586C19.5386 12.6086 19.8087 12.4701 20.085 12.3429C20.3709 12.2148 20.6568 12.0885 20.9427 11.964C20.9634 11.9559 20.9845 11.9489 21.0059 11.943C21.0816 11.9333 21.151 11.8957 21.2006 11.8377C21.2148 11.8468 21.2311 11.8523 21.2479 11.8535C21.2532 11.8552 21.255 11.8535 21.2532 11.8482C21.2572 11.8461 21.2607 11.8431 21.2634 11.8394C21.2661 11.8358 21.268 11.8316 21.269 11.8272C21.2708 11.8254 21.269 11.8219 21.2637 11.8167C21.2593 11.7981 21.254 11.7788 21.2479 11.7588C21.2484 11.758 21.2486 11.7571 21.2486 11.7561C21.2486 11.7552 21.2484 11.7543 21.2479 11.7535C21.2498 11.7484 21.2498 11.7428 21.2479 11.7377C21.2459 11.7301 21.2423 11.7229 21.2374 11.7167C21.2362 11.7129 21.2344 11.7094 21.2322 11.7062C21.1484 11.4504 21.0519 11.1978 20.9427 10.9484C20.8024 10.6413 20.6443 10.3426 20.4692 10.0538C20.3618 9.98032 20.3057 9.94349 20.3008 9.94334C20.2422 9.90404 20.1825 9.86545 20.1219 9.82756C19.9483 9.71743 19.7729 9.61218 19.5956 9.51183L19.5851 9.50657C19.4999 9.44978 19.408 9.40382 19.3115 9.36975C19.2933 9.36349 19.274 9.35647 19.2536 9.34871V9.35397H19.2483L19.2326 9.34344L19.3325 9.05402L19.7693 8.88564C19.7945 8.78788 19.8173 8.6879 19.8377 8.5857C19.8885 8.32846 19.9236 8.06839 19.9429 7.8069L19.8166 7.61746C19.8561 7.39505 19.8772 7.16978 19.8798 6.94391C19.7825 6.88162 19.6804 6.82707 19.5746 6.78078C19.4853 6.53943 19.3348 6.32545 19.1378 6.15985C18.7951 5.86126 18.3558 5.69678 17.9012 5.69678C17.4466 5.69678 17.0074 5.86126 16.6646 6.15985C16.3816 6.40116 16.2026 6.74231 16.1647 7.1123M17.2487 6.88077C17.2599 6.87695 17.2705 6.87164 17.2803 6.86498C17.2912 6.86279 17.3018 6.85925 17.3119 6.85446C18.0653 6.77719 18.8266 6.84688 19.5535 7.05968C19.5748 7.09093 19.5924 7.12447 19.6062 7.15966C19.6334 7.38726 19.6063 7.61808 19.5272 7.83322V7.83848C19.5179 7.87818 19.4979 7.91457 19.4693 7.94372C19.3717 7.96043 19.2717 7.95865 19.1747 7.93846C19.175 7.93108 19.1732 7.92376 19.1694 7.91741L19.1115 7.75428C19.111 7.74869 19.1092 7.74328 19.1063 7.7385L19.0694 7.64904V7.64378C19.0608 7.61542 19.0434 7.59051 19.0198 7.57257C18.9962 7.55462 18.9675 7.54456 18.9379 7.5438C18.8299 7.52921 18.7211 7.51868 18.6116 7.51223C18.5768 7.51044 18.5423 7.51898 18.5123 7.53676C18.4824 7.55455 18.4583 7.5808 18.4432 7.61221L18.3485 7.72797C18.3453 7.73333 18.3417 7.7386 18.338 7.74376L18.2854 7.80691C18.2179 7.85482 18.1365 7.87889 18.0538 7.87532C17.7925 7.89767 17.5293 7.87633 17.275 7.81217C17.2313 7.79405 17.1979 7.66601 17.1751 7.42803C17.1671 7.2576 17.1741 7.0868 17.1961 6.9176C17.2126 6.90717 17.2301 6.89665 17.2487 6.88603V6.88077M20.0008 10.2591C19.9907 10.5382 19.9994 10.8178 20.0271 11.0958L20.1482 11.7114L20.1376 11.7377L20.1745 11.7746H20.1903C20.1908 11.7815 20.1897 11.7885 20.187 11.7949C20.1842 11.8014 20.1799 11.807 20.1745 11.8114C20.0211 11.932 19.8509 12.0295 19.6693 12.1008C19.1512 12.3032 18.6426 12.5294 18.1433 12.7796C17.7793 12.9627 17.3913 13.0938 16.9909 13.169C16.8025 13.2107 16.6063 13.2016 16.4226 13.1427C16.3958 13.1353 16.3695 13.1266 16.3436 13.1164C16.2468 12.9338 16.0065 12.5356 15.6227 11.9219L16.1752 12.264C16.1992 11.9538 16.1957 11.6421 16.1647 11.3326C16.1401 11.1337 16.1138 10.925 16.0858 10.7064C16.0404 10.4111 15.9628 10.1217 15.8543 9.84336L16.5436 9.74338C16.564 9.77202 16.585 9.80009 16.6067 9.82758C16.6788 9.91632 16.758 9.99904 16.8435 10.0749C16.9137 10.1371 16.9875 10.1951 17.0645 10.2485C17.2347 10.3738 17.4205 10.4764 17.6171 10.5538C17.8893 10.6644 18.1809 10.7199 18.4748 10.7169C18.7749 10.72 19.0661 10.6155 19.2957 10.4222L19.4799 10.0696C19.6609 10.1101 19.836 10.1738 20.0008 10.2591M18.8852 7.88584C18.8896 7.89608 18.8931 7.90663 18.8958 7.91741C18.9051 7.9455 18.9138 7.97181 18.9221 7.99634C18.9318 8.02365 18.9389 8.05185 18.9431 8.08054C18.9475 8.09426 18.9563 8.11706 18.9694 8.14894C18.9746 8.1661 18.9782 8.18372 18.98 8.20157L18.9905 8.21209C19.0161 8.22049 19.0424 8.22926 19.0694 8.23839C19.0943 8.24415 19.1189 8.25118 19.1431 8.25944C19.1533 8.26381 19.1639 8.26733 19.1747 8.26997C19.1818 8.27345 19.1958 8.28046 19.2167 8.29101C19.2253 8.29545 19.2324 8.30231 19.237 8.31073C19.2417 8.31915 19.2438 8.32877 19.2431 8.33838C19.2327 8.40615 19.224 8.45527 19.2167 8.48571C19.2108 8.51972 19.202 8.55316 19.1904 8.5857C19.1858 8.60205 19.1805 8.61783 19.1747 8.63305C19.1516 8.70035 19.1288 8.7635 19.1063 8.82249L19.0694 8.91721C19.058 8.94268 19.0398 8.96452 19.0168 8.98036C18.9695 9.01305 18.9182 9.03958 18.8642 9.05929C18.7929 9.08557 18.7187 9.10324 18.6432 9.11191C18.6222 9.1148 18.6012 9.11656 18.58 9.11717C18.5626 9.11997 18.545 9.12173 18.5274 9.12243H18.4169C18.3978 9.11909 18.3785 9.11558 18.359 9.11191L18.1748 9.06455C18.1194 9.03591 18.0633 9.00609 18.0065 8.97509C17.9477 8.9436 17.8958 8.90066 17.8539 8.84881C17.8296 8.79034 17.8085 8.73062 17.7907 8.66989C17.7842 8.64261 17.7772 8.61454 17.7697 8.5857C17.7602 8.55133 17.7514 8.51625 17.7434 8.48045C17.738 8.46878 17.7345 8.45636 17.7328 8.44362C17.7318 8.44018 17.7318 8.43653 17.7328 8.43309C17.7323 8.43233 17.732 8.43141 17.732 8.43046C17.732 8.42952 17.7323 8.42859 17.7328 8.42783C17.7323 8.42707 17.732 8.42615 17.732 8.4252C17.732 8.42425 17.7323 8.42333 17.7328 8.42257C17.7308 8.41731 17.7291 8.41205 17.7276 8.40678C17.7285 8.39091 17.7302 8.3751 17.7328 8.35942C17.743 8.33385 17.7535 8.3093 17.7644 8.28575C17.7738 8.26405 17.8141 8.24826 17.8854 8.23839L17.917 8.23313C17.9544 8.23206 17.9982 8.22856 18.0486 8.22261C18.1151 8.21248 18.187 8.20196 18.2643 8.19104C18.3373 8.181 18.4083 8.15969 18.4748 8.12789C18.4787 8.12709 18.4823 8.12527 18.4853 8.12262C18.4976 8.10433 18.5099 8.08679 18.5222 8.07C18.5359 8.04722 18.55 8.02442 18.5643 8.0016C18.5814 7.97795 18.5972 7.95335 18.6116 7.92793C18.6242 7.91224 18.6365 7.89645 18.6485 7.88057C18.6515 7.87501 18.655 7.86973 18.659 7.86478C18.6662 7.86389 18.6732 7.86212 18.68 7.85952C18.7494 7.85675 18.8188 7.86565 18.8852 7.88584Z" fill="black"/>
<path d="M18.8956 7.91741C18.8929 7.90663 18.8894 7.89608 18.8851 7.88584C18.8186 7.86566 18.7493 7.85676 18.6799 7.85953C18.6731 7.86213 18.666 7.8639 18.6588 7.8648C18.6549 7.86975 18.6513 7.87503 18.6483 7.88058C18.6364 7.89646 18.6241 7.91225 18.6115 7.92794C18.5971 7.95337 18.5813 7.97796 18.5641 8.00161C18.5498 8.02443 18.5358 8.04723 18.522 8.07002C18.5097 8.08681 18.4974 8.10435 18.4852 8.12264C18.4822 8.12529 18.4785 8.1271 18.4746 8.1279C18.4082 8.15971 18.3372 8.18101 18.2642 8.19105C18.1868 8.20197 18.1149 8.21249 18.0484 8.22262C17.998 8.22857 17.9542 8.23208 17.9169 8.23315L17.8853 8.23841C17.814 8.24828 17.7736 8.26406 17.7642 8.28577C17.7534 8.30931 17.7428 8.33387 17.7327 8.35944C17.7301 8.37512 17.7283 8.39093 17.7274 8.4068C17.7289 8.41206 17.7307 8.41733 17.7327 8.42258C17.7321 8.42335 17.7318 8.42427 17.7318 8.42522C17.7318 8.42616 17.7321 8.42708 17.7327 8.42785C17.7321 8.42861 17.7318 8.42953 17.7318 8.43048C17.7318 8.43142 17.7321 8.43235 17.7327 8.43311C17.7317 8.43654 17.7317 8.4402 17.7327 8.44363C17.7343 8.45637 17.7378 8.4688 17.7432 8.48047C17.7513 8.51626 17.76 8.55134 17.7695 8.58571C17.777 8.61456 17.784 8.64262 17.7906 8.66991C17.8084 8.73063 17.8295 8.79036 17.8537 8.84882C17.8956 8.90068 17.9475 8.94362 18.0063 8.97511C18.0631 9.00611 18.1193 9.03593 18.1747 9.06457L18.3589 9.11193C18.3783 9.1156 18.3976 9.11911 18.4167 9.12245H18.5273C18.5449 9.12174 18.5625 9.11998 18.5799 9.11719C18.601 9.11657 18.6221 9.11481 18.643 9.11193C18.7185 9.10326 18.7927 9.08559 18.864 9.05931C18.918 9.03959 18.9693 9.01307 19.0166 8.98037C19.0396 8.96453 19.0578 8.94269 19.0693 8.91723L19.1061 8.82251C19.1286 8.76351 19.1514 8.70037 19.1745 8.63307C19.1803 8.61785 19.1856 8.60206 19.1903 8.58571C19.2018 8.55318 19.2106 8.51973 19.2166 8.48573C19.2238 8.45528 19.2326 8.40617 19.2429 8.33839C19.2436 8.32878 19.2416 8.31917 19.2369 8.31075C19.2322 8.30232 19.2251 8.29547 19.2166 8.29103C19.1956 8.28048 19.1816 8.27346 19.1745 8.26998C19.1637 8.26734 19.1531 8.26382 19.1429 8.25946C19.1187 8.25119 19.0941 8.24417 19.0692 8.23841C19.0422 8.22927 19.0159 8.2205 18.9903 8.2121L18.9798 8.20158C18.978 8.18374 18.9745 8.16612 18.9693 8.14896C18.9561 8.11707 18.9474 8.09427 18.943 8.08055C18.9387 8.05187 18.9317 8.02367 18.9219 7.99636C18.9137 7.97183 18.9049 7.94552 18.8956 7.91743M20.027 11.0958C19.9993 10.8178 19.9905 10.5383 20.0007 10.2591C19.8359 10.1738 19.6608 10.1102 19.4797 10.0696L19.2955 10.4222C19.066 10.6155 18.7747 10.72 18.4746 10.7169C18.1807 10.7199 17.8892 10.6644 17.6169 10.5538C17.4203 10.4764 17.2346 10.3738 17.0644 10.2486C16.9873 10.1951 16.9135 10.1371 16.8434 10.0749C16.7578 9.99905 16.6787 9.91633 16.6066 9.82759C16.5849 9.8001 16.5638 9.77203 16.5434 9.74339L15.8541 9.84337C15.9626 10.1217 16.0403 10.4111 16.0856 10.7064C16.1136 10.925 16.1399 11.1337 16.1646 11.3326C16.1956 11.6421 16.1991 11.9538 16.1751 12.264L15.6226 11.9219C16.0063 12.5356 16.2466 12.9338 16.3435 13.1164C16.3693 13.1265 16.3957 13.1353 16.4224 13.1427C16.6062 13.2016 16.8023 13.2107 16.9907 13.169C17.3912 13.0938 17.7791 12.9627 18.1431 12.7796C18.6424 12.5294 19.1511 12.3032 19.6692 12.1008C19.8508 12.0295 20.021 11.932 20.1743 11.8114C20.1798 11.807 20.1841 11.8014 20.1868 11.7949C20.1896 11.7885 20.1907 11.7815 20.1901 11.7746H20.1743L20.1375 11.7377L20.148 11.7114L20.027 11.0957M17.2801 6.86497C17.2704 6.87163 17.2597 6.87694 17.2486 6.88076V6.88602C17.23 6.89665 17.2124 6.90717 17.1959 6.9176C17.1739 7.08679 17.1669 7.2576 17.1749 7.42803C17.1978 7.666 17.2311 7.79405 17.2749 7.81216C17.5292 7.87633 17.7924 7.89767 18.0537 7.87531C18.1363 7.87889 18.2178 7.85481 18.2852 7.8069L18.3378 7.74376C18.3416 7.73859 18.3451 7.73333 18.3483 7.72797L18.4431 7.6122C18.4582 7.5808 18.4822 7.55455 18.5121 7.53676C18.5421 7.51897 18.5767 7.51043 18.6115 7.51222C18.721 7.51868 18.8297 7.5292 18.9377 7.54379C18.9673 7.54456 18.996 7.55462 19.0196 7.57256C19.0432 7.59051 19.0606 7.61542 19.0693 7.64378V7.64904L19.1061 7.73849C19.109 7.74328 19.1108 7.74868 19.1114 7.75428L19.1692 7.91741C19.173 7.92376 19.1748 7.93108 19.1745 7.93846C19.2715 7.95864 19.3715 7.96043 19.4692 7.94372C19.4977 7.91456 19.5177 7.87817 19.5271 7.83848V7.83321C19.6062 7.61807 19.6332 7.38726 19.606 7.15966C19.5923 7.12446 19.5746 7.09093 19.5534 7.05968C18.8265 6.84688 18.0652 6.77718 17.3117 6.85445C17.3017 6.85924 17.291 6.86278 17.2801 6.86497Z" fill="white"/>
<path d="M44.096 6.62291L44.0855 6.61239C43.5765 6.07204 42.9029 5.71547 42.1699 5.59837C41.4368 5.48128 40.6857 5.61025 40.0337 5.96514C40.0227 5.96718 40.0121 5.97072 40.0021 5.97567C39.8249 6.07753 39.6576 6.19556 39.5022 6.32823H39.5074L39.4443 6.38085C39.4366 6.38509 39.4295 6.39041 39.4232 6.39664C39.2432 6.54143 39.0626 6.68877 38.8812 6.83866C38.8755 6.8397 38.87 6.84216 38.8654 6.84584C38.8608 6.84951 38.8572 6.85428 38.8549 6.85971L36.929 8.41204C36.7344 8.56493 36.5432 8.71929 36.3554 8.87512C36.3476 8.87662 36.3403 8.88026 36.3344 8.88564H36.3291C36.2824 8.9251 36.2315 8.9672 36.1765 9.01193C35.9829 9.16294 35.8111 9.34002 35.6661 9.53815C35.5691 9.66567 35.4862 9.80328 35.4187 9.94859C35.3842 10.0202 35.3543 10.0941 35.3293 10.1696L35.3346 10.1643C35.3282 10.1737 35.3246 10.1846 35.324 10.1959L30.7617 13.4058C30.7584 13.4079 30.7549 13.4097 30.7512 13.4111C30.6137 13.3073 30.4786 13.2108 30.346 13.1217C30.2898 13.0869 30.2272 13.0636 30.1619 13.0533L20.1111 11.5641L20.1059 11.5588C19.5154 11.5205 18.9242 11.6215 18.3799 11.8535C18.2388 11.9176 18.0985 11.9825 17.9589 12.0482C17.7019 12.1728 17.4441 12.2974 17.1854 12.4218C16.9609 12.5367 16.7346 12.6507 16.5066 12.7638C16.3917 12.8209 15.676 13.2243 14.3596 13.9741L14.3544 13.9689V13.9741C13.9875 14.2147 13.6191 14.462 13.2493 14.7161C13.0538 14.8518 12.8574 14.9886 12.6599 15.1266C12.188 15.4639 11.7161 15.8112 11.2444 16.1685C11.0288 16.3335 10.8131 16.5002 10.5972 16.6684C10.4404 16.7925 10.2825 16.917 10.1236 17.042C10.031 17.1143 9.97053 17.2202 9.9552 17.3367C9.8681 18.0265 9.79443 18.7352 9.73419 19.4626C9.69282 19.9886 9.65774 20.5236 9.62894 21.0675C9.60602 21.5747 9.58672 22.101 9.57106 22.6462C9.56114 23.0349 9.55237 23.4331 9.54476 23.8407C8.28962 24.9529 7.17405 25.9948 6.19803 26.9664C5.54489 27.6171 4.95377 28.2363 4.42468 28.8239C4.26794 29.4961 4.20595 30.1869 4.24051 30.8762C4.12093 31.0341 4.00341 31.2007 3.88794 31.3761C3.88302 31.3817 3.87774 31.3869 3.87216 31.3919C3.34252 32.1885 3.07766 33.1655 3.07757 34.3229C3.04995 35.3682 3.32595 36.3991 3.87216 37.2907C3.87302 37.2946 3.87482 37.2982 3.87742 37.3013C4.36969 38.0806 4.95554 38.5243 5.63498 38.6326L5.92966 38.6589C5.93439 38.6589 5.93789 38.6589 5.94018 38.6589H5.94545C5.96014 38.6591 5.97592 38.6591 5.9928 38.6589C5.99788 38.6609 6.00352 38.6609 6.00859 38.6589C6.01371 38.6606 6.01926 38.6606 6.02438 38.6589C6.14245 38.6607 6.31435 38.6572 6.54007 38.6484H36.5396C36.5742 38.651 36.6089 38.6437 36.6396 38.6273C36.9069 38.4834 37.1621 38.318 37.4026 38.1327L37.4078 38.1274C38.6214 37.2278 39.6161 36.0658 40.3178 34.7281C41.0115 33.4284 41.5014 32.0299 41.7702 30.5815C41.9944 29.3899 42.0966 28.1787 42.0754 26.9664C42.0739 26.7343 42.0669 26.501 42.0543 26.2665L43.2857 25.3877C43.338 25.3529 43.382 25.3071 43.4148 25.2535C43.4475 25.1999 43.4681 25.1397 43.4751 25.0773C43.4752 25.0753 43.4752 25.0718 43.4751 25.0668C43.4791 25.0281 43.4773 24.9891 43.4698 24.951C43.4698 24.9485 43.4698 24.945 43.4698 24.9405C43.4371 24.8024 43.3895 24.6683 43.3278 24.5405C43.2857 24.4476 43.2436 24.3546 43.2015 24.2616C43.1672 24.1757 43.1304 24.088 43.091 23.9985C43.0315 23.8641 42.9684 23.7343 42.9015 23.6091C42.8349 23.4889 42.7665 23.3696 42.6963 23.2513C42.6472 23.1661 42.5963 23.0837 42.5437 23.004C42.3197 22.6428 42.0587 22.306 41.7649 21.9989C41.6276 21.8552 41.4818 21.7198 41.3281 21.5937C40.9278 21.2663 40.4689 21.0181 39.9758 20.8623C39.9701 20.8619 39.9647 20.8601 39.96 20.857C39.9488 20.8559 39.9365 20.8542 39.9231 20.8518C38.9772 20.649 38.0193 20.5067 37.0553 20.4255C36.4545 20.3721 35.8073 20.3335 35.1135 20.3098L35.0609 19.4257C35.0601 19.4202 35.0583 19.4149 35.0557 19.4099C35.0534 19.3628 35.0427 19.3165 35.0241 19.2731C35.0145 19.2473 35.0022 19.2226 34.9872 19.1994C34.9716 19.1769 34.954 19.1557 34.9346 19.1363V19.131C34.9333 19.1312 34.9315 19.1295 34.9294 19.1258C34.8556 19.0448 34.7543 18.9941 34.6452 18.9837L33.6401 18.8574C33.6237 18.6751 33.6009 18.4926 33.5717 18.3101C33.5118 17.9345 33.4256 17.5635 33.3139 17.1998C33.2263 16.886 33.1227 16.5769 33.0034 16.2737L33.0087 16.2684C33.1999 16.1684 33.3911 16.0684 33.5822 15.9685C34.2014 15.6405 34.8189 15.3107 35.4345 14.9792C36.1473 14.5975 36.8612 14.2169 37.5762 13.8373C37.5829 13.8403 37.59 13.8421 37.5973 13.8426H37.6025C37.732 13.8532 37.862 13.8567 37.9919 13.8531C38.2965 13.841 38.5969 13.7787 38.8812 13.6689C38.8845 13.6697 38.8862 13.6679 38.8865 13.6637C38.9102 13.6526 38.9348 13.6438 38.9602 13.6374C38.9626 13.6366 38.9649 13.6352 38.9667 13.6334C38.9686 13.6316 38.9699 13.6293 38.9707 13.6268H38.976L42.8121 11.985C42.8149 11.9857 42.8179 11.9856 42.8207 11.9846C42.8235 11.9837 42.826 11.982 42.8278 11.9798C43.2473 11.8281 43.6321 11.5937 43.9592 11.2904C44.1438 11.1211 44.3097 10.9323 44.4539 10.7274V10.7221C44.4559 10.7223 44.458 10.7219 44.4598 10.721C44.4617 10.72 44.4633 10.7186 44.4644 10.7169C44.8058 10.2089 44.994 9.61336 45.0064 9.0014C45.0323 8.33297 44.8503 7.67296 44.4854 7.11228V7.11755C44.4834 7.10988 44.4798 7.10271 44.4749 7.0965C44.4688 7.08403 44.4597 7.07321 44.4486 7.06492C44.3465 6.91041 44.2321 6.76436 44.1066 6.62817C44.1061 6.62755 44.1043 6.6258 44.1013 6.6229H44.096M41.7596 6.22298C42.1102 6.23424 42.4548 6.31599 42.7731 6.46336C43.0913 6.61072 43.3766 6.82068 43.6119 7.08071C43.7252 7.20236 43.829 7.33255 43.9224 7.47011C44.2159 7.91749 44.3613 8.4458 44.3381 8.98035C44.3335 9.32415 44.2571 9.6632 44.114 9.97581C43.9708 10.2884 43.764 10.5677 43.5067 10.7958C43.2429 11.0451 42.9289 11.2353 42.5858 11.3536C42.5846 11.3552 42.583 11.3565 42.5811 11.3574C42.5793 11.3583 42.5773 11.3588 42.5753 11.3588C42.5749 11.3601 42.5742 11.3612 42.5733 11.3621C42.5724 11.363 42.5712 11.3637 42.57 11.3641C42.2591 11.4628 41.9327 11.5038 41.607 11.4851C41.133 11.4696 40.6725 11.324 40.2757 11.0642C40.2695 11.0613 40.2625 11.0578 40.2547 11.0536C40.2265 11.0345 40.1967 11.0134 40.1652 10.9905C40.1493 10.9761 40.1316 10.9637 40.1126 10.9537C39.9828 10.8532 39.8614 10.7423 39.7495 10.6221C39.6324 10.4949 39.5267 10.3575 39.4338 10.2117C39.2892 9.98807 39.1808 9.74298 39.1128 9.48551L39.118 9.48025C39.0771 9.29864 39.0524 9.11373 39.0444 8.92773C39.0379 8.75165 39.0362 8.6429 39.0391 8.60147C38.8664 8.90724 38.7843 9.25584 38.8023 9.60654L35.8818 11.6062C35.8558 11.4831 35.8399 11.3582 35.8345 11.2325V11.2273C35.8256 11.1028 35.8273 10.9778 35.8397 10.8537C35.8509 10.7506 35.8702 10.6485 35.8976 10.5485L35.9029 10.5432V10.5379H35.9081V10.5274C35.9092 10.5277 35.9092 10.5259 35.9081 10.5222C35.9383 10.4233 35.9752 10.3266 36.0186 10.2327C36.1038 10.0611 36.2118 9.90183 36.3396 9.75915C36.3543 9.743 36.3683 9.72722 36.3817 9.71179L37.1026 9.09086C37.8859 8.41756 38.7068 7.74401 39.5653 7.07019L40.1494 6.62817C40.6313 6.32969 41.1939 6.18812 41.7596 6.22299M24.1314 14.6424H24.1367L28.257 15.195L27.415 15.7791C27.3002 15.9286 27.0318 16.7021 26.6099 18.0997L24.263 17.826C24.2874 17.7857 24.3102 17.7453 24.3314 17.705C24.5756 17.2109 24.6829 16.6603 24.6419 16.1106C24.5922 15.5832 24.3891 15.082 24.0578 14.6687C24.0806 14.6558 24.1055 14.6469 24.1314 14.6424M27.715 16.842C27.7129 16.7841 27.7147 16.7261 27.7202 16.6684C27.7226 16.6425 27.7261 16.6162 27.7307 16.5894C27.7527 16.4633 27.8011 16.3432 27.8727 16.2371C27.9444 16.131 28.0377 16.0413 28.1465 15.9738C28.1503 15.9706 28.1539 15.9671 28.157 15.9632L35.4608 10.8958C35.4538 11.0132 35.4538 11.1309 35.4608 11.2483V11.2536C35.4702 11.4277 35.4966 11.6004 35.5398 11.7693C35.5936 11.9666 35.6733 12.1559 35.7766 12.3324V12.3376L27.7992 17.1946C27.7932 17.1767 27.7862 17.1574 27.7781 17.1367C27.7446 17.0416 27.7233 16.9425 27.715 16.842M30.0093 13.7321C30.0664 13.7702 30.1225 13.8088 30.1776 13.8479L28.9568 14.7056L23.5315 13.9531C23.4176 13.9619 23.3057 13.9885 23.2 14.032C23.038 14.1021 22.8967 14.2126 22.7896 14.353C22.9349 14.8232 23.0457 15.3033 23.1211 15.7896C23.1547 16.0131 23.181 16.2166 23.2 16.4C23.2158 16.5523 23.2263 16.6909 23.2316 16.8157C23.246 17.0445 23.2495 17.3181 23.2421 17.6366C23.2426 17.6565 23.2426 17.6758 23.2421 17.6945H23.2369L20.8689 17.3945H20.8426C20.829 17.1746 20.8097 16.9554 20.7847 16.7368C20.7839 16.7149 20.7821 16.6921 20.7795 16.6684C20.7611 16.5011 20.7401 16.3345 20.7163 16.1685C20.697 16.0414 20.676 15.9134 20.6532 15.7843C20.6137 15.5642 20.5681 15.345 20.5163 15.1266C20.4993 15.0499 20.48 14.9727 20.4585 14.895C20.2723 14.1315 20.0314 13.3823 19.7376 12.6533C19.7244 12.4086 19.8577 12.2946 20.1375 12.3113L30.0093 13.7321M31.6563 17.6366C31.6516 17.4178 31.6305 17.1997 31.5932 16.9841L32.3772 16.5684C32.3904 16.6021 32.4027 16.6354 32.4141 16.6684C32.5416 16.978 32.6471 17.2963 32.7298 17.6208C32.7582 17.7314 32.7845 17.8436 32.8087 17.9576C32.8211 18.0204 32.8334 18.0853 32.8456 18.1523V18.1575C32.8652 18.2584 32.888 18.4285 32.914 18.668C32.9239 18.7435 32.9327 18.8259 32.9403 18.9153L31.4879 18.7311L31.53 18.589C31.5457 18.5414 31.5597 18.4923 31.5721 18.4417C31.5951 18.3445 31.6127 18.2462 31.6247 18.147C31.6272 18.1366 31.629 18.1261 31.63 18.1154C31.6494 17.9566 31.6582 17.7966 31.6563 17.6366M30.9985 17.2998C31.009 17.4313 31.0143 17.5558 31.0143 17.6734C31.0143 17.8161 31.0037 17.9586 30.9827 18.0997C30.9825 18.1032 30.9825 18.1067 30.9827 18.1102V18.1155C30.9685 18.1979 30.9527 18.2803 30.9354 18.3628V18.3575C30.9271 18.3875 30.9131 18.4349 30.8933 18.4996C30.888 18.5075 30.8844 18.5165 30.8828 18.5259L30.8722 18.568C30.8659 18.5849 30.8571 18.6077 30.8459 18.6364C30.846 18.6414 30.846 18.6467 30.8459 18.6522L29.1147 18.4259L29.1199 18.368C29.1307 18.3353 29.1395 18.3019 29.1463 18.2681L30.9985 17.2998ZM39.7653 21.5253C40.1007 21.6325 40.4168 21.7923 40.7019 21.9989C41.2067 22.3725 41.6339 22.8407 41.9596 23.3776C42.2111 23.7718 42.4344 24.1833 42.6279 24.6089L37.2079 24.088C37.101 23.2989 36.741 22.5658 36.1818 21.9989C35.7654 21.5895 35.2765 21.2612 34.7399 21.0307C34.7105 21.018 34.6789 21.004 34.6452 20.9886C34.6236 20.9813 34.6025 20.9725 34.5821 20.9623C34.6041 20.9646 34.6251 20.9664 34.6452 20.9675C34.6505 20.9674 34.654 20.9674 34.6557 20.9675H34.682C34.7127 20.9688 34.7425 20.9688 34.7715 20.9675C36.8743 21.0626 38.5389 21.2485 39.7653 21.5253M34.3295 19.7099L34.3558 20.2677L33.5402 20.2466C33.439 20.2433 33.3386 20.2657 33.2484 20.3117C33.1582 20.3577 33.0812 20.4259 33.0245 20.5097V20.5045L32.5824 21.0412L26.5941 20.4255H26.5889C26.5874 20.4236 26.5856 20.4218 26.5836 20.4203C26.5688 20.4019 26.5529 20.3843 26.5362 20.3677L26.5152 20.3466C26.3894 20.2208 26.2558 20.103 26.1153 19.994C26.0057 19.9089 25.8899 19.8265 25.768 19.7467C25.5507 19.6033 25.3239 19.475 25.0891 19.3626C25.0797 19.3564 25.0688 19.3528 25.0576 19.3521C24.4621 19.1171 23.84 18.9563 23.2053 18.8732C23.0281 18.8453 22.8422 18.8207 22.6475 18.7995C22.3449 18.7609 22.0239 18.7293 21.6845 18.7048H21.6635C21.5299 18.6936 21.3668 18.6813 21.1741 18.668C21.0153 18.6573 20.8364 18.645 20.6374 18.6312L20.6479 18.0471L34.3295 19.7099ZM32.5351 21.7306C32.7952 21.8028 33.0501 21.8925 33.2981 21.9989C33.9128 22.2523 34.4591 22.6471 34.8925 23.1513L34.8873 23.1461C35.4475 23.8474 35.6737 24.7683 35.5661 25.9087L26.852 25.1141C26.8501 24.9389 26.8466 24.7635 26.8414 24.5879L27.9518 23.5092C27.9837 23.4797 28.0058 23.4411 28.0149 23.3987L28.0202 23.3724C28.0205 23.3627 28.0205 23.3522 28.0202 23.3408C28.0207 23.332 28.0207 23.3232 28.0202 23.3145C28.0196 23.3055 28.0179 23.2966 28.0149 23.2882C27.9702 23.0713 27.914 22.857 27.8465 22.6462C27.8235 22.5777 27.7989 22.5093 27.7728 22.441C27.6147 22.0067 27.4044 21.5932 27.1467 21.2096L32.5351 21.7306M36.6396 26.9664C36.6526 26.5612 36.6456 26.1543 36.6185 25.7456L41.2966 26.1718C41.3236 26.4353 41.3412 26.7002 41.3492 26.9664C41.3532 27.0066 41.355 27.047 41.3545 27.0874C41.3591 27.1856 41.3609 27.2821 41.3597 27.3769L39.8547 27.2821C39.8246 27.2816 39.7951 27.2909 39.7706 27.3085C39.7495 27.3297 39.7364 27.3576 39.7337 27.3874C39.7311 27.4049 39.7294 27.4225 39.7285 27.44C39.7171 27.6022 39.7048 27.7636 39.6916 27.9241C39.6903 27.9404 39.6924 27.9568 39.6979 27.9722C39.7033 27.9876 39.7119 28.0017 39.7232 28.0136C39.7325 28.0259 39.7444 28.036 39.758 28.0433C39.7717 28.0506 39.7867 28.0548 39.8021 28.0557L41.3492 28.1557C41.3199 28.9529 41.2266 29.7465 41.0703 30.5289C41.0643 30.5275 41.0572 30.5257 41.0493 30.5236L39.3812 30.4289C39.3528 30.4295 39.3253 30.4387 39.3022 30.4552C39.2803 30.4709 39.2638 30.493 39.2549 30.5184C39.2461 30.5587 39.2373 30.5973 39.2286 30.6341C39.2277 30.6379 39.226 30.6396 39.2233 30.6394C39.1907 30.778 39.1556 30.9148 39.1181 31.0498C39.1134 31.0709 39.1153 31.0929 39.1233 31.113H39.1181C39.1263 31.1359 39.1409 31.1559 39.1602 31.1709C39.1792 31.1873 39.2034 31.1966 39.2286 31.1972L40.8914 31.2919C40.7077 32.0239 40.4612 32.7387 40.1547 33.4283C40.1426 33.4253 40.1303 33.4235 40.1179 33.4231L38.3971 33.3389C38.3734 33.3387 38.35 33.3441 38.3287 33.3547C38.3087 33.3679 38.2924 33.386 38.2814 33.4073C38.2661 33.4426 38.2503 33.4777 38.234 33.5125V33.5178C38.2246 33.5305 38.2174 33.5447 38.213 33.5599V33.5651C38.2067 33.5778 38.1996 33.5901 38.1919 33.602C38.1402 33.7107 38.0876 33.8195 38.0341 33.9282C38.0227 33.9529 38.019 33.9804 38.0235 34.0072C38.0301 34.0323 38.0449 34.0546 38.0656 34.0703C38.0837 34.089 38.1081 34.1002 38.134 34.1019L39.7916 34.1808L39.7074 34.3492C39.5875 34.573 39.4612 34.7941 39.3285 35.0122C39.0911 35.4029 38.8256 35.7757 38.534 36.1278C38.5138 36.1091 38.4878 36.0979 38.4603 36.0962L36.7606 36.0699C36.7427 36.0711 36.725 36.0746 36.708 36.0805C36.6917 36.0899 36.6774 36.1024 36.6659 36.1173C36.5712 36.2392 36.473 36.3602 36.3712 36.4804L36.3607 36.4909L36.3554 36.4962C36.3148 36.5434 36.2727 36.5907 36.2291 36.6382C36.2079 36.6615 36.1966 36.6921 36.1976 36.7235C36.1986 36.7549 36.2118 36.7848 36.2344 36.8066C36.2576 36.8272 36.2876 36.8385 36.3186 36.8382L37.8499 36.8592C37.4257 37.2702 36.9621 37.6386 36.4659 37.959H31.9036L32.6035 37.3276L33.3139 36.5593C33.952 35.8104 34.4914 34.9828 34.9189 34.0966C34.9616 34.0086 35.0037 33.9191 35.0452 33.8283C35.484 32.9097 35.8278 31.9488 36.0713 30.9604C36.0963 30.8643 36.1208 30.7661 36.145 30.6657C36.4334 29.4701 36.5991 28.2482 36.6396 27.019C36.6402 27.0024 36.6402 26.9848 36.6396 26.9664M24.6051 19.9046C24.7371 19.9507 24.8616 19.9981 24.9787 20.0467C25.0981 20.1207 25.2121 20.1979 25.3207 20.2782C25.4891 20.3987 25.6491 20.5306 25.7996 20.6729C25.9303 20.7949 26.0533 20.925 26.1679 21.0623C26.2655 21.1766 26.3568 21.296 26.4415 21.4201C26.6471 21.7135 26.825 22.0253 26.973 22.3515C27.0183 22.4497 27.0604 22.5479 27.0993 22.6462C27.1512 22.7808 27.2073 22.9492 27.2677 23.1513L20.5163 22.562C20.2068 21.5101 19.742 20.7524 19.1219 20.2887C18.9313 20.1457 18.7225 20.0289 18.5009 19.9414C18.2293 20.0097 17.9329 20.0974 17.6116 20.2045C16.2617 20.657 14.4866 21.4709 12.2863 22.6462C11.9298 22.8384 11.5614 23.0384 11.1813 23.2461C11.4656 23.0408 11.7463 22.8408 12.0232 22.6462C13.3921 21.687 14.8431 20.8505 16.3592 20.1466C16.9276 19.8926 17.4854 19.6716 18.0326 19.4836C18.3153 19.387 18.5941 19.2993 18.8693 19.2205C19.1206 19.2383 19.3679 19.2558 19.6113 19.2731C19.8874 19.2924 20.1593 19.3117 20.4269 19.331C20.8281 19.3579 21.2228 19.3842 21.6109 19.4099C21.6344 19.4118 21.6572 19.4136 21.6793 19.4152C21.7666 19.4199 21.8543 19.4251 21.9424 19.431C22.3953 19.4637 22.8145 19.5111 23.2 19.5731C23.677 19.6433 24.147 19.7542 24.605 19.9046M24.6577 26.3244C24.6335 26.3483 24.6186 26.38 24.6156 26.4139L24.584 26.9506C24.5836 26.9559 24.5836 26.9611 24.584 26.9664C24.5841 26.9958 24.5954 27.024 24.6156 27.0453C24.6261 27.0593 24.6396 27.0707 24.6551 27.0789C24.6705 27.0871 24.6876 27.0918 24.705 27.0927L26.3415 27.1979C26.3067 28.0199 26.2205 28.8389 26.0837 29.6501C26.0786 29.6518 26.073 29.6518 26.0679 29.6501L24.4787 29.5554C24.4469 29.5546 24.4156 29.5638 24.3893 29.5817C24.3648 29.6017 24.348 29.6296 24.3419 29.6606L24.2367 30.1921C24.2309 30.2149 24.2328 30.2389 24.2419 30.2605C24.2498 30.2851 24.2644 30.3069 24.284 30.3236C24.3054 30.3396 24.3311 30.3488 24.3577 30.3499L25.9416 30.4447C25.9111 30.5801 25.8813 30.7152 25.8522 30.8498C25.7073 31.5403 25.5066 32.2178 25.2523 32.8758C25.2405 32.8715 25.2279 32.8697 25.2154 32.8705L23.5526 32.7863C23.525 32.7869 23.4979 32.7941 23.4737 32.8074C23.4511 32.8237 23.433 32.8454 23.421 32.8705L23.1948 33.3915C23.1837 33.4182 23.1819 33.4478 23.1895 33.4757C23.1953 33.5041 23.2101 33.5299 23.2316 33.5493C23.2541 33.567 23.282 33.5763 23.3105 33.5756L24.9365 33.6598C24.9215 33.6896 24.9058 33.7194 24.8892 33.7493C24.7245 34.1098 24.5438 34.4659 24.3472 34.8175C24.1367 35.1921 23.8993 35.5509 23.6368 35.891C23.6146 35.8728 23.5865 35.8634 23.5578 35.8647L21.8476 35.8331C21.8276 35.8352 21.8081 35.8405 21.7898 35.8489C21.772 35.8584 21.756 35.8708 21.7424 35.8857L21.3214 36.4119C21.2997 36.4365 21.2883 36.4686 21.2899 36.5014C21.2915 36.5356 21.3067 36.5677 21.332 36.5908C21.3435 36.6028 21.3574 36.6123 21.3728 36.6186C21.3882 36.625 21.4048 36.628 21.4214 36.6277L22.958 36.6487C22.7339 36.8739 22.4929 37.0815 22.237 37.2697C21.879 37.535 21.4967 37.7658 21.0952 37.959H15.3594C16.3477 37.2571 17.1985 36.3795 17.8695 35.37C18.72 34.1118 19.378 32.7338 19.8217 31.2813C19.8758 31.1161 19.9267 30.9495 19.9743 30.7814C20.3194 29.5347 20.5397 28.2567 20.6321 26.9664C20.6362 26.9226 20.6397 26.8787 20.6426 26.8348C20.659 26.587 20.6731 26.3379 20.6847 26.0876C20.712 25.5127 20.726 24.9339 20.7268 24.3511L26.3626 24.7142V26.3981L24.7576 26.2928C24.7215 26.2907 24.6859 26.3019 24.6576 26.3244M4.88248 35.0122C4.90773 35.1834 4.94644 35.3523 4.99825 35.5174L4.26154 35.4911C4.28835 35.5865 4.31817 35.6777 4.351 35.7647L5.09823 35.7857C5.14845 35.9018 5.20646 36.0143 5.27188 36.1225C5.44002 36.4433 5.71039 36.6989 6.04015 36.8487C5.73329 36.9389 5.40489 36.9222 5.10876 36.8013C5.28899 36.9329 5.50105 37.0139 5.72306 37.0361C5.94507 37.0583 6.16898 37.0209 6.37168 36.9276C6.41682 36.9055 6.46074 36.8809 6.50323 36.854C6.53967 36.8314 6.57481 36.8068 6.60847 36.7803C6.8082 36.632 6.98087 36.4505 7.1189 36.2435C7.51274 35.669 7.73204 34.9929 7.75036 34.2965C7.81024 33.6182 7.66349 32.9377 7.32939 32.3443C7.16414 32.0407 6.90851 31.7961 6.59795 31.6444L7.10312 31.2866C7.19782 31.3554 7.28591 31.4329 7.36622 31.5181L7.38727 31.5392C7.50815 31.6721 7.61566 31.8167 7.70826 31.9707C8.1217 32.6818 8.30547 33.5033 8.23448 34.3229C8.2116 34.8366 8.10495 35.3432 7.91875 35.8226C7.84503 36.014 7.75525 36.1988 7.65038 36.3751C7.6135 36.4393 7.57491 36.5007 7.53461 36.5593C7.5104 36.5976 7.48405 36.6345 7.45568 36.6698C6.99591 37.3141 6.46443 37.6386 5.86125 37.6433H5.84545C5.28793 37.6441 4.81784 37.3722 4.4352 36.8276C4.40386 36.7781 4.37228 36.7255 4.34048 36.6698C4.04363 36.1737 3.86703 35.6151 3.82479 35.0385C3.82075 34.9523 3.81724 34.8646 3.81426 34.7754C3.81143 34.6285 3.81318 34.4776 3.81953 34.3229C3.83403 34.0577 3.86744 33.7939 3.91951 33.5335C3.92023 33.5301 3.92023 33.5265 3.91951 33.523L4.34048 33.2283C4.23354 33.575 4.17164 33.9341 4.1563 34.2965C4.14831 34.4465 4.14656 34.5921 4.15104 34.7333C4.15619 34.8209 4.16321 34.9068 4.17209 34.9912L4.88248 35.0122M18.6167 23.1881C18.6462 23.2345 18.6742 23.2819 18.7009 23.3302C19.1998 24.166 19.4786 25.1147 19.5113 26.0876C19.5215 26.252 19.525 26.4186 19.5218 26.5875C19.523 26.7121 19.5195 26.8384 19.5113 26.9664C19.478 27.7629 19.3145 28.5486 19.0271 29.2922C18.9124 29.5891 18.7733 29.876 18.6114 30.15C18.5527 30.249 18.4913 30.3455 18.4273 30.4394C18.3906 30.4963 18.352 30.5524 18.3115 30.6078C18.2696 30.6675 18.2257 30.7254 18.1799 30.7814C17.4969 31.6631 16.7163 32.1086 15.8383 32.118H15.8172C14.952 32.117 14.224 31.6925 13.6334 30.8446C13.6203 30.8247 13.6063 30.8036 13.5913 30.7814C13.5533 30.7254 13.5147 30.6675 13.4756 30.6078C13.0202 29.8369 12.7517 28.97 12.6915 28.0767C12.6792 27.944 12.6705 27.8072 12.6652 27.6662C12.6624 27.5728 12.6606 27.4763 12.6599 27.3768L13.2019 26.9979C13.1935 27.2113 13.1935 27.4183 13.2019 27.6189C13.2083 27.7521 13.2188 27.8819 13.2335 28.0083L14.3228 28.0451C14.3627 28.3071 14.4225 28.5657 14.5017 28.8186L13.3703 28.7818C13.41 28.9277 13.4538 29.068 13.5019 29.2028L14.6543 29.2396C14.7313 29.4168 14.8192 29.589 14.9174 29.7553C15.1524 30.1827 15.5 30.5376 15.9225 30.7815C15.9837 30.8137 16.047 30.8418 16.1119 30.8656C15.5145 30.998 15.0339 30.9752 14.6701 30.7972C15.2272 31.2065 15.8727 31.2697 16.6066 30.9867H16.6118C16.681 30.9546 16.7478 30.9177 16.8118 30.8762C16.8625 30.8472 16.9117 30.8156 16.9591 30.7815C16.9656 30.7776 16.9711 30.7722 16.9749 30.7657C17.2824 30.5364 17.5492 30.2571 17.7642 29.9395C18.3641 29.0612 18.7001 28.0295 18.7325 26.9664C18.7322 26.9611 18.7322 26.9559 18.7325 26.9506V26.9453C18.7403 26.8161 18.7438 26.688 18.743 26.5612C18.7444 26.4008 18.7392 26.2429 18.7272 26.0876C18.6843 25.3325 18.4624 24.5984 18.08 23.9459C18.0265 23.8555 17.9704 23.7695 17.9116 23.6881L18.6167 23.1882M11.3655 31.776C11.4197 31.8329 11.4796 31.884 11.5444 31.9286L10.2657 32.5601L10.1815 32.0286L11.1129 31.455C11.1169 31.458 11.1204 31.4615 11.1234 31.4655L11.1392 31.455C11.1774 31.533 11.2232 31.607 11.276 31.676L11.3655 31.776ZM15.0805 33.3599L15.0963 33.3757C15.1794 33.4728 15.2518 33.5787 15.3121 33.6914C15.5654 34.1692 15.6733 34.7106 15.6225 35.249C15.6187 35.3087 15.6135 35.3683 15.6067 35.4279C15.5694 35.811 15.4717 36.1857 15.3173 36.5382C15.2533 36.681 15.1776 36.8183 15.0911 36.9487C15.0627 36.9965 15.0311 37.0422 14.9963 37.0855C14.979 37.1132 14.9596 37.1396 14.9385 37.1644C14.9157 37.1951 14.8929 37.2232 14.87 37.2486C14.5206 37.6707 14.1365 37.8829 13.7176 37.8854C13.716 37.8862 13.7142 37.8867 13.7124 37.8867C13.7105 37.8867 13.7087 37.8862 13.7071 37.8854C13.5001 37.8832 13.2975 37.8261 13.1199 37.7197C12.9424 37.6134 12.7963 37.4617 12.6968 37.2802C12.6924 37.2707 12.6872 37.2601 12.681 37.2486C12.665 37.2232 12.6492 37.1951 12.6336 37.1644C12.4339 36.7939 12.3274 36.3803 12.3232 35.9594C12.3205 35.8965 12.3188 35.8316 12.3179 35.7647C12.3236 35.6562 12.3323 35.544 12.3442 35.4279C12.3517 35.3683 12.3587 35.3087 12.3653 35.249C12.3878 35.1114 12.4158 34.9781 12.4494 34.8491C12.5575 34.4293 12.749 34.0356 13.0125 33.6914C13.2142 33.4084 13.4913 33.1878 13.8124 33.0547C13.9053 33.0365 14.0071 33.0137 14.1176 32.9863C14.1593 32.9815 14.2014 32.978 14.2439 32.9758C14.4029 32.9752 14.5601 33.0092 14.7046 33.0756C14.849 33.1419 14.9774 33.2389 15.0805 33.3599M8.78701 31.6444C8.72255 31.5458 8.65589 31.4529 8.58705 31.3656C8.39484 31.1136 8.15753 30.8995 7.88718 30.7341L11.697 28.0557C11.6917 28.5598 11.7627 29.0619 11.9075 29.5448C11.4728 29.8334 10.8589 30.2456 10.0657 30.7815C9.68215 31.0411 9.25591 31.3288 8.78701 31.6444ZM11.0234 34.2334C11.0932 34.3149 11.1549 34.403 11.2076 34.4965C11.421 34.8835 11.5179 35.3239 11.4865 35.7647C11.4842 35.8131 11.4807 35.8623 11.476 35.9121C11.4519 36.222 11.3772 36.526 11.255 36.8119C11.2078 36.9294 11.1497 37.0421 11.0813 37.1486C11.0588 37.1885 11.0342 37.2272 11.0076 37.2644C10.9922 37.2858 10.9765 37.3068 10.9603 37.3276C10.9428 37.3519 10.9252 37.3748 10.9077 37.396C10.8027 37.5484 10.6642 37.6747 10.5027 37.765C10.3412 37.8554 10.1611 37.9073 9.97625 37.9169H9.97099C9.80059 37.9142 9.63382 37.8672 9.48711 37.7805C9.3404 37.6937 9.21881 37.5703 9.13431 37.4223C9.12994 37.413 9.12465 37.4042 9.11852 37.396C9.10697 37.3748 9.09469 37.352 9.08169 37.3276C8.91303 37.0262 8.81919 36.6887 8.80806 36.3436C8.8049 36.2927 8.80315 36.2401 8.8028 36.1857C8.80328 36.0968 8.80678 36.0056 8.81332 35.9121C8.81926 35.8623 8.82452 35.8132 8.82911 35.7647C8.84482 35.6525 8.86412 35.5437 8.88699 35.4385C8.96883 35.0977 9.11923 34.7772 9.32901 34.4965C9.48884 34.2639 9.71147 34.0814 9.97099 33.9703C10.0464 33.9574 10.1288 33.9399 10.2183 33.9177C10.2515 33.9142 10.2849 33.9125 10.3183 33.9124C10.4488 33.9111 10.5781 33.9382 10.6971 33.9918C10.8162 34.0454 10.9221 34.1243 11.0076 34.2229C11.0138 34.2273 11.019 34.2308 11.0234 34.2334M10.2657 34.4492C10.2459 34.4481 10.2248 34.4464 10.2025 34.4439C10.0582 34.4538 9.91845 34.4982 9.79485 34.5733C9.67124 34.6483 9.56744 34.7519 9.49213 34.8754C9.42143 34.9712 9.35977 35.0734 9.30795 35.1806C9.22487 35.3683 9.1682 35.5667 9.13957 35.77C9.13578 35.8131 9.13228 35.8569 9.12904 35.9015C9.12171 35.981 9.1182 36.0582 9.11852 36.1331C9.11877 36.1787 9.12053 36.2225 9.12378 36.2646L9.49739 36.2751C9.50832 36.3658 9.52591 36.4555 9.55001 36.5435L9.16061 36.533C9.17343 36.5825 9.18746 36.6299 9.20271 36.6751L9.59737 36.6856C9.62061 36.7474 9.64877 36.8072 9.68157 36.8645C9.75741 37.0121 9.87438 37.1345 10.0183 37.2171C10.0365 37.2281 10.0559 37.237 10.0762 37.2434C10.0556 37.2501 10.0345 37.2554 10.0131 37.2592C9.87073 37.293 9.72127 37.2801 9.58684 37.2223C9.68127 37.2919 9.79283 37.3346 9.90961 37.3457C10.0264 37.3568 10.144 37.336 10.2499 37.2855C10.2737 37.2751 10.2966 37.2628 10.3183 37.2486C10.3365 37.2394 10.3541 37.2288 10.3709 37.2171C10.3727 37.2171 10.3744 37.2153 10.3762 37.2118C10.484 37.1329 10.5782 37.0369 10.6551 36.9276C10.8717 36.6269 10.9993 36.2713 11.0234 35.9015C11.0272 35.8569 11.029 35.8131 11.0287 35.77C11.0495 35.4594 10.982 35.1492 10.834 34.8754C10.7885 34.7808 10.7246 34.6962 10.646 34.6266C10.5673 34.557 10.4756 34.5038 10.3762 34.4702C10.3399 34.4605 10.303 34.4534 10.2657 34.4492M14.1649 33.6388C14.1382 33.6367 14.1101 33.6349 14.0807 33.6335C13.7606 33.6354 13.4677 33.8108 13.2019 34.1597C13.1133 34.2768 13.0358 34.4019 12.9704 34.5334C12.8632 34.7621 12.7888 35.0048 12.7494 35.2543C12.7419 35.3086 12.7349 35.363 12.7283 35.4174C12.7192 35.5149 12.7139 35.6097 12.7126 35.7016C12.7107 35.757 12.7107 35.8114 12.7126 35.8647L13.1704 35.8752C13.1816 35.987 13.2009 36.0978 13.2282 36.2067L12.7547 36.1909C12.7678 36.2513 12.7819 36.3092 12.7968 36.3646L13.2809 36.3804C13.3102 36.4541 13.3436 36.5261 13.3808 36.5961C13.4716 36.7773 13.6122 36.9288 13.786 37.0329C13.8099 37.0449 13.8345 37.0555 13.8597 37.0645C13.8337 37.0702 13.8074 37.0754 13.7808 37.0802C13.6053 37.1218 13.4212 37.107 13.2546 37.0382C13.3701 37.1228 13.5063 37.1749 13.6489 37.1887C13.7915 37.2026 13.9352 37.1779 14.0649 37.1171C14.096 37.1017 14.1258 37.0841 14.1544 37.0645C14.1762 37.0554 14.1973 37.0449 14.2175 37.0329C14.2203 37.03 14.2221 37.0263 14.2228 37.0224C14.3584 36.9265 14.4775 36.8092 14.5754 36.6751C14.8482 36.3082 15.014 35.8729 15.0542 35.4174C15.0592 35.363 15.0627 35.3086 15.0647 35.2543C15.0966 34.8758 15.02 34.4962 14.8437 34.1598C14.7921 34.0446 14.7173 33.9412 14.6241 33.8562C14.5308 33.7711 14.4211 33.706 14.3017 33.6651C14.2568 33.6532 14.2111 33.6444 14.1649 33.6388M30.5144 24.9457H30.5197C30.5514 24.9153 30.5762 24.8784 30.5926 24.8375C30.6089 24.7967 30.6163 24.7529 30.6144 24.7089C30.6152 24.6654 30.6068 24.6223 30.5895 24.5823C30.5723 24.5424 30.5466 24.5066 30.5144 24.4774H30.5197C30.4894 24.4458 30.4531 24.4206 30.4128 24.4035C30.3726 24.3863 30.3293 24.3774 30.2855 24.3774C30.2417 24.3774 30.1984 24.3863 30.1582 24.4035C30.1179 24.4206 30.0816 24.4458 30.0513 24.4774C30.0197 24.5071 29.9945 24.543 29.9773 24.5828C29.9601 24.6226 29.9513 24.6656 29.9514 24.7089C29.9504 24.7532 29.9587 24.7972 29.976 24.838C29.9932 24.8789 30.0189 24.9156 30.0513 24.9457C30.0811 24.9773 30.1169 25.0025 30.1567 25.0197C30.1966 25.0369 30.2395 25.0458 30.2829 25.0457C30.3264 25.0468 30.3697 25.0385 30.4097 25.0212C30.4496 25.004 30.4854 24.9782 30.5144 24.9457ZM28.2412 24.2406C28.2105 24.2088 28.1737 24.1835 28.133 24.1664C28.0923 24.1492 28.0485 24.1404 28.0044 24.1406C27.9171 24.1425 27.834 24.1783 27.7728 24.2406C27.7101 24.3036 27.6743 24.3885 27.6729 24.4774C27.673 24.5215 27.6819 24.5652 27.6991 24.6058C27.7162 24.6465 27.7413 24.6833 27.7728 24.7142V24.7089C27.8032 24.7401 27.8394 24.765 27.8794 24.7822C27.9194 24.7994 27.9624 24.8084 28.0059 24.8089C28.0494 24.8094 28.0926 24.8013 28.133 24.785C28.1734 24.7688 28.2101 24.7447 28.2412 24.7142V24.7089C28.2738 24.68 28.2997 24.6443 28.317 24.6043C28.3342 24.5643 28.3425 24.521 28.3411 24.4774C28.342 24.4331 28.3336 24.3892 28.3163 24.3484C28.2991 24.3076 28.2735 24.2708 28.2412 24.2406ZM32.7929 24.7037C32.7634 24.6718 32.7276 24.6464 32.6877 24.6292C32.6479 24.612 32.6048 24.6033 32.5614 24.6037C32.4725 24.6049 32.3875 24.6408 32.3246 24.7037C32.2617 24.7666 32.2258 24.8515 32.2246 24.9405C32.2242 24.9839 32.2329 25.0269 32.2501 25.0668C32.2673 25.1067 32.2927 25.1425 32.3246 25.172C32.355 25.2042 32.3917 25.2297 32.4325 25.2469C32.4733 25.2641 32.5172 25.2726 32.5614 25.272C32.6049 25.2728 32.648 25.2642 32.688 25.247C32.7279 25.2298 32.7637 25.2042 32.7929 25.172C32.8253 25.1429 32.8509 25.1071 32.8682 25.0671C32.8854 25.0272 32.8939 24.984 32.8929 24.9405C32.8932 24.8963 32.8844 24.8525 32.8672 24.8118C32.8501 24.7711 32.8248 24.7343 32.7929 24.7037M34.8399 24.9194H34.8452C34.8144 24.8877 34.7776 24.8626 34.7369 24.8454C34.6962 24.8282 34.6525 24.8194 34.6084 24.8194C34.5196 24.8212 34.4348 24.857 34.3716 24.9194C34.3093 24.9806 34.2734 25.0637 34.2716 25.151C34.2715 25.1959 34.2803 25.2404 34.2975 25.2819C34.3147 25.3235 34.3398 25.3612 34.3716 25.393V25.3877C34.4019 25.42 34.4387 25.4455 34.4794 25.4627C34.5202 25.4799 34.5641 25.4884 34.6084 25.4877C34.6515 25.4898 34.6946 25.4824 34.7346 25.466C34.7746 25.4497 34.8106 25.4247 34.8399 25.393L34.8452 25.3877C34.8757 25.3567 34.8998 25.3199 34.916 25.2796C34.9323 25.2392 34.9404 25.196 34.9399 25.1525C34.9394 25.109 34.9303 25.066 34.9132 25.026C34.896 24.986 34.8711 24.9498 34.8399 24.9194ZM21.6582 16.9104C21.6585 16.9612 21.6693 17.0113 21.6898 17.0578C21.7068 17.0887 21.728 17.117 21.7529 17.142C21.761 17.1514 21.7698 17.1602 21.7792 17.1683C21.7921 17.1802 21.8062 17.1908 21.8213 17.1998C21.8641 17.2256 21.9135 17.2384 21.9634 17.2367C22.0042 17.236 22.0442 17.2263 22.0807 17.208C22.1171 17.1898 22.149 17.1636 22.1739 17.1314C22.2017 17.1 22.223 17.0633 22.2366 17.0236C22.2501 16.9838 22.2556 16.9418 22.2528 16.8999C22.2528 16.8117 22.2189 16.7269 22.1581 16.6631C22.1323 16.6326 22.1 16.6083 22.0636 16.5919C22.0272 16.5755 21.9876 16.5675 21.9476 16.5684C21.8993 16.5709 21.8523 16.5854 21.8108 16.6105C21.784 16.6266 21.7592 16.6461 21.7372 16.6684C21.6823 16.7368 21.6542 16.8228 21.6582 16.9104M21.2215 12.9638C21.182 12.9646 21.1433 12.9739 21.1078 12.9912C21.0724 13.0084 21.0411 13.0332 21.0162 13.0638C20.9601 13.1305 20.9301 13.2154 20.9321 13.3026C20.934 13.3897 20.9677 13.4732 21.0268 13.5374C21.0529 13.5671 21.0854 13.5905 21.1218 13.606C21.1583 13.6215 21.1977 13.6286 21.2372 13.6268C21.2679 13.6286 21.2985 13.6232 21.3267 13.611C21.3751 13.5968 21.4175 13.5673 21.4477 13.5268C21.5002 13.4695 21.5285 13.3941 21.5267 13.3164C21.5287 13.3077 21.5287 13.2987 21.5267 13.2901C21.5282 13.2042 21.4961 13.1211 21.4372 13.0585C21.4106 13.0276 21.3774 13.0031 21.3401 12.9867C21.3027 12.9703 21.2622 12.9625 21.2215 12.9638M21.895 14.7477V14.7529C21.8429 14.7062 21.7756 14.6801 21.7056 14.6793C21.6385 14.6836 21.5751 14.7115 21.5267 14.7582C21.5187 14.7678 21.5099 14.7766 21.5004 14.7845C21.4448 14.8508 21.4149 14.9348 21.4162 15.0213C21.4179 15.0264 21.4179 15.032 21.4162 15.0371C21.4215 15.1194 21.4549 15.1975 21.5109 15.2581C21.538 15.2881 21.5714 15.3116 21.6087 15.3271C21.646 15.3426 21.6863 15.3496 21.7266 15.3476C21.7406 15.3493 21.7547 15.3493 21.7687 15.3476C21.8336 15.3356 21.8918 15.3 21.9319 15.2476C21.9608 15.2156 21.9832 15.1783 21.9977 15.1376C22.0121 15.097 22.0184 15.0539 22.0161 15.0108C22.0152 14.9243 21.9813 14.8415 21.9213 14.7792C21.9131 14.7688 21.9043 14.7582 21.895 14.7477M42.649 6.79657C42.6042 6.77756 42.5586 6.76002 42.5121 6.74394C42.3197 6.68173 42.1196 6.64632 41.9175 6.6387C41.636 6.6212 41.3539 6.66167 41.0887 6.75762C40.8235 6.85356 40.5808 7.00294 40.3757 7.19649C40.167 7.38392 39.9995 7.61254 39.8836 7.86793C39.7676 8.12333 39.7059 8.39997 39.7021 8.68042C39.6943 8.88411 39.7156 9.08787 39.7653 9.28556V9.29082C39.8199 9.50373 39.9088 9.70633 40.0284 9.89071C40.0305 9.89404 40.0323 9.89757 40.0337 9.90123C40.0376 9.90434 40.0411 9.90787 40.0442 9.91176C40.115 10.0179 40.1942 10.1182 40.281 10.2117V10.217C40.3099 10.2459 40.3379 10.274 40.3652 10.3012L40.3704 10.3064C40.5177 10.4497 40.6842 10.5719 40.8651 10.6695C41.1478 10.819 41.461 10.9018 41.7807 10.9116H41.786C42.0676 10.9305 42.3501 10.8907 42.6155 10.7947C42.8809 10.6987 43.1235 10.5485 43.3278 10.3538C43.5499 10.181 43.7164 9.94677 43.8066 9.68022L41.2966 10.4169C41.1562 10.3671 41.0233 10.298 40.9019 10.2117L44.0066 8.74356C44.0126 8.7654 44.0143 8.74435 44.0118 8.68042C44.0302 8.45604 43.9687 8.23241 43.8382 8.04896L40.5862 9.92755C40.4196 9.74155 40.2973 9.52028 40.2284 9.2803L42.6279 7.05967C42.8122 7.05683 42.9945 7.09834 43.1594 7.1807C43.1854 7.19256 43.2117 7.20484 43.2383 7.21754C43.0746 7.03631 42.8735 6.89269 42.6489 6.79657H42.649Z" fill="black"/>
<path d="M11.2076 34.4965C11.1549 34.403 11.0933 34.3149 11.0234 34.2334C11.0191 34.2308 11.0138 34.2273 11.0077 34.2229C10.9221 34.1243 10.8162 34.0454 10.6972 33.9918C10.5781 33.9382 10.4489 33.9111 10.3183 33.9124C10.2849 33.9125 10.2516 33.9142 10.2183 33.9177C10.1288 33.9399 10.0464 33.9574 9.97102 33.9703C9.7115 34.0814 9.48886 34.2639 9.32904 34.4965C9.11926 34.7772 8.96886 35.0977 8.88702 35.4385C8.86415 35.5437 8.84485 35.6525 8.82913 35.7647C8.82454 35.8132 8.81928 35.8623 8.81335 35.9121C8.80681 36.0056 8.8033 36.0968 8.80282 36.1857C8.80318 36.2401 8.80493 36.2927 8.80808 36.3435C8.81922 36.6887 8.91306 37.0262 9.08172 37.3276C9.09472 37.352 9.107 37.3748 9.11855 37.396C9.12468 37.4042 9.12997 37.413 9.13434 37.4223C9.21884 37.5703 9.34043 37.6937 9.48713 37.7805C9.63384 37.8672 9.80061 37.9142 9.97102 37.9169H9.97628C10.1611 37.9073 10.3412 37.8554 10.5027 37.765C10.6642 37.6747 10.8028 37.5484 10.9077 37.396C10.9253 37.3747 10.9428 37.3519 10.9603 37.3276C10.9765 37.3068 10.9923 37.2858 11.0077 37.2644C11.0342 37.2272 11.0588 37.1885 11.0813 37.1486C11.1497 37.0421 11.2079 36.9294 11.255 36.8119C11.3772 36.526 11.4519 36.222 11.476 35.912C11.4807 35.8623 11.4842 35.8131 11.4865 35.7647C11.5179 35.3239 11.421 34.8835 11.2076 34.4965ZM10.2026 34.4439C10.2248 34.4464 10.2459 34.4481 10.2657 34.4492C10.303 34.4534 10.3399 34.4605 10.3762 34.4702C10.4757 34.5039 10.5674 34.557 10.646 34.6266C10.7246 34.6962 10.7885 34.7808 10.834 34.8754C10.982 35.1492 11.0495 35.4594 11.0287 35.77C11.029 35.8131 11.0273 35.8569 11.0234 35.9015C10.9994 36.2714 10.8717 36.6269 10.6551 36.9276C10.5782 37.0369 10.484 37.1329 10.3762 37.2118C10.3745 37.2153 10.3727 37.2171 10.3709 37.2171C10.3542 37.2288 10.3366 37.2394 10.3183 37.2486C10.2966 37.2628 10.2737 37.2751 10.2499 37.2855C10.144 37.336 10.0264 37.3568 9.90966 37.3457C9.79288 37.3346 9.68131 37.2919 9.58688 37.2223C9.72131 37.2801 9.87078 37.293 10.0131 37.2592C10.0345 37.2554 10.0556 37.2501 10.0763 37.2434C10.056 37.237 10.0366 37.2281 10.0184 37.2171C9.87443 37.1345 9.75746 37.0121 9.68162 36.8645C9.64882 36.8072 9.62066 36.7474 9.59742 36.6856L9.20276 36.6751C9.18751 36.6299 9.17348 36.5825 9.16066 36.533L9.55006 36.5435C9.52596 36.4555 9.50837 36.3658 9.49744 36.2751L9.12383 36.2646C9.12058 36.2225 9.11883 36.1787 9.11857 36.1331C9.11825 36.0582 9.12176 35.981 9.12909 35.9015C9.13233 35.8569 9.13583 35.8131 9.13962 35.77C9.16825 35.5667 9.22491 35.3684 9.308 35.1806C9.35982 35.0734 9.42147 34.9712 9.49217 34.8754C9.56748 34.752 9.67129 34.6483 9.79489 34.5733C9.9185 34.4982 10.0583 34.4538 10.2026 34.4439M8.5871 31.3656C8.65594 31.4529 8.72259 31.5458 8.78706 31.6445C9.25596 31.3288 9.6822 31.0411 10.0658 30.7815C10.8589 30.2456 11.4729 29.8334 11.9075 29.5449C11.7627 29.0619 11.6918 28.5598 11.697 28.0557L7.88721 30.7341C8.15756 30.8995 8.39486 31.1136 8.58707 31.3656M15.0964 33.3757L15.0806 33.3599C14.9774 33.2389 14.8491 33.1419 14.7046 33.0756C14.5601 33.0092 14.4029 32.9752 14.2439 32.9758C14.2014 32.978 14.1593 32.9815 14.1176 32.9863C14.0071 33.0137 13.9054 33.0365 13.8124 33.0547C13.4914 33.1878 13.2142 33.4084 13.0125 33.6914C12.749 34.0356 12.5576 34.4293 12.4495 34.8491C12.4159 34.9781 12.3878 35.1114 12.3653 35.249C12.3587 35.3087 12.3517 35.3684 12.3442 35.4279C12.3324 35.544 12.3236 35.6562 12.3179 35.7647C12.3188 35.8316 12.3206 35.8965 12.3232 35.9594C12.3274 36.3803 12.434 36.7939 12.6337 37.1644C12.6493 37.1951 12.665 37.2232 12.681 37.2486C12.6872 37.2601 12.6925 37.2707 12.6968 37.2802C12.7964 37.4617 12.9424 37.6134 13.12 37.7197C13.2975 37.8261 13.5002 37.8832 13.7072 37.8854C13.7088 37.8862 13.7106 37.8867 13.7124 37.8867C13.7143 37.8867 13.7161 37.8862 13.7177 37.8854C14.1365 37.8829 14.5206 37.6707 14.8701 37.2486C14.8929 37.2232 14.9157 37.1951 14.9385 37.1644C14.9597 37.1396 14.979 37.1132 14.9964 37.0855C15.0311 37.0422 15.0628 36.9965 15.0911 36.9487C15.1777 36.8183 15.2533 36.681 15.3174 36.5382C15.4717 36.1857 15.5694 35.811 15.6068 35.4279C15.6135 35.3683 15.6188 35.3087 15.6226 35.249C15.6733 34.7106 15.5654 34.1692 15.3121 33.6914C15.2518 33.5787 15.1795 33.4728 15.0964 33.3757M14.0808 33.6336C14.1102 33.6349 14.1382 33.6367 14.165 33.6388C14.2111 33.6444 14.2568 33.6532 14.3018 33.6651C14.4212 33.706 14.5309 33.7711 14.6241 33.8562C14.7174 33.9412 14.7921 34.0446 14.8438 34.1598C15.02 34.4962 15.0967 34.8759 15.0648 35.2543C15.0628 35.3086 15.0593 35.363 15.0543 35.4174C15.0141 35.8729 14.8483 36.3082 14.5754 36.6751C14.4776 36.8092 14.3585 36.9265 14.2229 37.0224C14.2222 37.0263 14.2204 37.03 14.2176 37.0329C14.1973 37.0449 14.1762 37.0554 14.1544 37.0645C14.1259 37.0841 14.096 37.1017 14.065 37.1171C13.9353 37.1779 13.7916 37.2026 13.649 37.1887C13.5064 37.1749 13.3702 37.1228 13.2546 37.0382C13.4213 37.107 13.6054 37.1218 13.7808 37.0803C13.8075 37.0754 13.8338 37.0702 13.8598 37.0645C13.8346 37.0555 13.81 37.0449 13.7861 37.0329C13.6122 36.9288 13.4716 36.7773 13.3809 36.5961C13.3436 36.5261 13.3102 36.4541 13.2809 36.3804L12.7968 36.3646C12.7819 36.3092 12.7679 36.2513 12.7547 36.1909L13.2283 36.2067C13.201 36.0978 13.1816 35.987 13.1704 35.8752L12.7126 35.8647C12.7108 35.8114 12.7108 35.757 12.7126 35.7016C12.714 35.6097 12.7193 35.5149 12.7284 35.4174C12.7349 35.363 12.7419 35.3086 12.7494 35.2543C12.7888 35.0048 12.8632 34.7621 12.9705 34.5334C13.0359 34.4019 13.1134 34.2768 13.202 34.1598C13.4678 33.8108 13.7607 33.6354 14.0808 33.6335M11.5444 31.9286C11.4797 31.884 11.4197 31.8329 11.3655 31.776L11.2761 31.676C11.2233 31.607 11.1775 31.533 11.1392 31.455L11.1235 31.4655C11.1205 31.4615 11.117 31.458 11.1129 31.455L10.1815 32.0286L10.2657 32.5601L11.5444 31.9286ZM18.701 23.3302C18.6743 23.2819 18.6462 23.2346 18.6168 23.1882L17.9116 23.6881C17.9704 23.7695 18.0266 23.8555 18.08 23.9459C18.4625 24.5984 18.6843 25.3325 18.7272 26.0876C18.7392 26.2429 18.7445 26.4008 18.743 26.5612C18.7439 26.688 18.7404 26.8161 18.7325 26.9454V26.9506C18.7322 26.9559 18.7322 26.9611 18.7325 26.9664C18.7001 28.0295 18.3642 29.0612 17.7643 29.9395C17.5492 30.2571 17.2824 30.5364 16.9749 30.7657C16.9711 30.7722 16.9657 30.7776 16.9591 30.7815C16.9117 30.8156 16.8625 30.8472 16.8118 30.8762C16.7478 30.9177 16.681 30.9546 16.6118 30.9867H16.6066C15.8727 31.2697 15.2272 31.2065 14.6701 30.7973C15.0339 30.9752 15.5145 30.998 16.1119 30.8657C16.047 30.8418 15.9837 30.8137 15.9225 30.7815C15.5 30.5377 15.1524 30.1828 14.9174 29.7553C14.8192 29.589 14.7313 29.4168 14.6543 29.2397L13.5019 29.2028C13.4539 29.0681 13.41 28.9277 13.3704 28.7818L14.5017 28.8187C14.4226 28.5657 14.3628 28.3072 14.3228 28.0452L13.2335 28.0083C13.2189 27.8819 13.2083 27.7521 13.202 27.6189C13.1936 27.4184 13.1936 27.2114 13.202 26.998L12.66 27.3769C12.6607 27.4764 12.6624 27.5729 12.6652 27.6663C12.6705 27.8072 12.6793 27.944 12.6915 28.0767C12.7517 28.9701 13.0202 29.8369 13.4756 30.6078C13.5147 30.6675 13.5533 30.7254 13.5914 30.7815C13.6063 30.8037 13.6204 30.8247 13.6335 30.8446C14.2241 31.6926 14.952 32.117 15.8173 32.1181H15.8383C16.7164 32.1087 17.4969 31.6631 18.18 30.7815C18.2257 30.7254 18.2696 30.6675 18.3115 30.6078C18.352 30.5525 18.3906 30.4963 18.4273 30.4394C18.4913 30.3456 18.5527 30.2491 18.6115 30.15C18.7734 29.876 18.9124 29.5891 19.0272 29.2923C19.3145 28.5487 19.4781 27.763 19.5113 26.9664C19.5195 26.8384 19.523 26.7121 19.5218 26.5875C19.525 26.4187 19.5215 26.2521 19.5113 26.0876C19.4787 25.1148 19.1999 24.1661 18.7009 23.3303M4.99829 35.5174C4.94647 35.3523 4.90777 35.1834 4.88252 35.0122L4.17213 34.9912C4.16325 34.9069 4.15623 34.8209 4.15108 34.7333C4.1466 34.5921 4.14835 34.4465 4.15634 34.2966C4.17168 33.9341 4.23358 33.5751 4.34052 33.2284L3.91955 33.523C3.92027 33.5265 3.92027 33.5301 3.91955 33.5336C3.86748 33.794 3.83406 34.0577 3.81957 34.3229C3.81322 34.4776 3.81147 34.6285 3.8143 34.7754C3.81728 34.8647 3.82078 34.9524 3.82483 35.0385C3.86706 35.6151 4.04367 36.1737 4.34052 36.6698C4.37232 36.7255 4.4039 36.7782 4.43524 36.8277C4.81788 37.3723 5.28796 37.6441 5.84549 37.6433H5.86128C6.46445 37.6387 6.99593 37.3142 7.45571 36.6698C7.48408 36.6345 7.51043 36.5976 7.53464 36.5593C7.57494 36.5008 7.61353 36.4394 7.65041 36.3751C7.75528 36.1988 7.84506 36.014 7.91878 35.8226C8.10498 35.3432 8.21163 34.8366 8.23451 34.3229C8.3055 33.5033 8.12173 32.6819 7.70829 31.9707C7.61569 31.8167 7.50818 31.6722 7.3873 31.5392L7.36625 31.5182C7.28594 31.433 7.19785 31.3555 7.10315 31.2866L6.59798 31.6444C6.90854 31.7961 7.16417 32.0407 7.32942 32.3443C7.66352 32.9377 7.81027 33.6182 7.75039 34.2966C7.73207 34.9929 7.51277 35.669 7.11893 36.2436C6.9809 36.4505 6.80823 36.6321 6.6085 36.7803C6.57484 36.8068 6.5397 36.8314 6.50326 36.854C6.46077 36.8809 6.41685 36.9055 6.37171 36.9276C6.16901 37.0209 5.9451 37.0583 5.72309 37.0361C5.50108 37.0139 5.28902 36.9329 5.10879 36.8014C5.40493 36.9222 5.73332 36.9389 6.04018 36.8487C5.71042 36.6989 5.44005 36.4433 5.27191 36.1225C5.20649 36.0143 5.14848 35.9018 5.09826 35.7858L4.35103 35.7647C4.3182 35.6777 4.28838 35.5865 4.26157 35.4911L4.99828 35.5174M24.6156 26.4139C24.6186 26.38 24.6335 26.3483 24.6577 26.3244C24.686 26.3019 24.7216 26.2907 24.7577 26.2928L26.3626 26.3981V24.7142L20.7269 24.3511C20.7261 24.9339 20.712 25.5127 20.6848 26.0876C20.6731 26.338 20.6591 26.587 20.6427 26.8348C20.6397 26.8787 20.6362 26.9226 20.6321 26.9664C20.5398 28.2567 20.3194 29.5347 19.9744 30.7815C19.9267 30.9495 19.8759 31.1162 19.8218 31.2814C19.378 32.7338 18.72 34.1119 17.8695 35.3701C17.1985 36.3796 16.3477 37.2571 15.3595 37.959H21.0952C21.4967 37.7658 21.8791 37.535 22.2371 37.2697C22.493 37.0815 22.734 36.8739 22.958 36.6488L21.4215 36.6277C21.4048 36.6281 21.3883 36.625 21.3729 36.6187C21.3575 36.6123 21.3436 36.6029 21.332 36.5909C21.3067 36.5678 21.2916 36.5356 21.2899 36.5014C21.2884 36.4686 21.2997 36.4365 21.3215 36.412L21.7425 35.8857C21.756 35.8709 21.772 35.8584 21.7898 35.8489C21.8081 35.8405 21.8277 35.8352 21.8477 35.8331L23.5579 35.8647C23.5865 35.8635 23.6147 35.8728 23.6368 35.891C23.8994 35.5509 24.1368 35.1921 24.3472 34.8175C24.5439 34.4659 24.7245 34.1098 24.8892 33.7493C24.9058 33.7194 24.9216 33.6896 24.9366 33.6599L23.3106 33.5757C23.282 33.5763 23.2541 33.567 23.2317 33.5494C23.2101 33.5299 23.1954 33.5041 23.1896 33.4757C23.1819 33.4478 23.1838 33.4182 23.1948 33.3915L23.4211 32.8705C23.433 32.8454 23.4511 32.8237 23.4737 32.8074C23.498 32.7941 23.525 32.7869 23.5526 32.7863L25.2155 32.8705C25.228 32.8697 25.2405 32.8715 25.2523 32.8758C25.5067 32.2178 25.7073 31.5403 25.8522 30.8499C25.8813 30.7152 25.9111 30.5802 25.9417 30.4447L24.3578 30.35C24.3311 30.3488 24.3054 30.3397 24.2841 30.3237C24.2644 30.307 24.2498 30.2851 24.242 30.2605C24.2328 30.2389 24.231 30.2149 24.2367 30.1921L24.342 29.6606C24.3481 29.6296 24.3648 29.6017 24.3893 29.5817C24.4157 29.5638 24.4469 29.5546 24.4788 29.5554L26.068 29.6501C26.0731 29.6518 26.0786 29.6518 26.0837 29.6501C26.2206 28.8389 26.3067 28.0199 26.3416 27.198L24.7051 27.0927C24.6876 27.0918 24.6706 27.0871 24.6551 27.0789C24.6397 27.0707 24.6262 27.0593 24.6156 27.0454C24.5954 27.024 24.5842 26.9958 24.584 26.9664C24.5836 26.9612 24.5836 26.9559 24.584 26.9506L24.6156 26.4139M24.9787 20.0467C24.8617 19.9981 24.7371 19.9507 24.6051 19.9046C24.1471 19.7542 23.677 19.6433 23.2001 19.5731C22.8145 19.5111 22.3953 19.4637 21.9424 19.431C21.8543 19.4252 21.7666 19.4199 21.6793 19.4152C21.6572 19.4136 21.6344 19.4119 21.6109 19.41C21.2228 19.3842 20.8282 19.3579 20.4269 19.331C20.1594 19.3117 19.8875 19.2924 19.6113 19.2732C19.368 19.2558 19.1207 19.2383 18.8693 19.2205C18.5942 19.2993 18.3153 19.387 18.0327 19.4836C17.4855 19.6716 16.9277 19.8927 16.3593 20.1467C14.8432 20.8506 13.3922 21.687 12.0233 22.6462C11.7463 22.8409 11.4657 23.0408 11.1813 23.2461C11.5615 23.0384 11.9298 22.8384 12.2864 22.6462C14.4866 21.4709 16.2617 20.6571 17.6117 20.2046C17.9329 20.0974 18.2294 20.0097 18.501 19.9414C18.7226 20.029 18.9314 20.1458 19.1219 20.2887C19.7421 20.7524 20.2069 21.5101 20.5164 22.562L27.2677 23.1514C27.2073 22.9492 27.1512 22.7808 27.0993 22.6462C27.0604 22.548 27.0183 22.4497 26.9731 22.3515C26.825 22.0253 26.6471 21.7135 26.4416 21.4201C26.3568 21.296 26.2655 21.1766 26.1679 21.0623C26.0533 20.925 25.9303 20.7949 25.7996 20.6729C25.6492 20.5306 25.4892 20.3987 25.3207 20.2782C25.2121 20.1979 25.0981 20.1208 24.9787 20.0467M36.6185 25.7456C36.6456 26.1543 36.6526 26.5612 36.6396 26.9664C36.6402 26.9848 36.6402 27.0024 36.6396 27.019C36.5991 28.2482 36.4334 29.4701 36.145 30.6657C36.1208 30.7661 36.0963 30.8643 36.0713 30.9604C35.8278 31.9488 35.484 32.9097 35.0452 33.8282C35.0037 33.9191 34.9616 34.0085 34.9189 34.0966C34.4914 34.9828 33.952 35.8104 33.3139 36.5593L32.6035 37.3276L31.9037 37.959H36.4659C36.9621 37.6386 37.4257 37.2702 37.8499 36.8592L36.3186 36.8382C36.2876 36.8384 36.2576 36.8272 36.2344 36.8066C36.2118 36.7847 36.1986 36.7549 36.1976 36.7235C36.1966 36.692 36.2079 36.6615 36.2291 36.6382C36.2727 36.5907 36.3148 36.5434 36.3554 36.4961L36.3607 36.4909L36.3712 36.4804C36.473 36.3602 36.5712 36.2392 36.6659 36.1173C36.6775 36.1024 36.6917 36.0899 36.708 36.0804C36.725 36.0746 36.7427 36.0711 36.7606 36.0699L38.4603 36.0962C38.4878 36.0979 38.5138 36.109 38.534 36.1278C38.8256 35.7757 39.0911 35.4029 39.3286 35.0122C39.4612 34.794 39.5875 34.573 39.7074 34.3492L39.7916 34.1808L38.134 34.1019C38.1081 34.1002 38.0837 34.089 38.0656 34.0703C38.0449 34.0545 38.0301 34.0323 38.0235 34.0071C38.019 33.9804 38.0227 33.9529 38.0341 33.9282C38.0876 33.8195 38.1402 33.7107 38.1919 33.602C38.1997 33.5901 38.2067 33.5778 38.213 33.5651V33.5599C38.2174 33.5447 38.2246 33.5304 38.234 33.5178V33.5125C38.2503 33.4777 38.2661 33.4426 38.2814 33.4073C38.2924 33.386 38.3087 33.3679 38.3287 33.3546C38.35 33.3441 38.3734 33.3387 38.3972 33.3389L40.1179 33.423C40.1303 33.4235 40.1427 33.4253 40.1547 33.4283C40.4612 32.7387 40.7077 32.0239 40.8914 31.2919L39.2286 31.1972C39.2034 31.1966 39.1792 31.1873 39.1602 31.1709C39.1409 31.1559 39.1264 31.1359 39.1181 31.113H39.1233C39.1153 31.0929 39.1134 31.0709 39.1181 31.0498C39.1556 30.9148 39.1907 30.778 39.2233 30.6394C39.226 30.6396 39.2278 30.6378 39.2286 30.6341C39.2373 30.5973 39.2461 30.5587 39.2549 30.5183C39.2638 30.4929 39.2804 30.4709 39.3022 30.4552C39.3253 30.4387 39.3528 30.4295 39.3812 30.4289L41.0493 30.5236C41.0573 30.5257 41.0643 30.5275 41.0703 30.5289C41.2266 29.7465 41.3199 28.9529 41.3492 28.1556L39.8021 28.0557C39.7867 28.0548 39.7717 28.0506 39.758 28.0433C39.7444 28.036 39.7325 28.0259 39.7232 28.0136C39.7119 28.0017 39.7033 27.9876 39.6979 27.9722C39.6924 27.9568 39.6903 27.9404 39.6916 27.9241C39.7048 27.7636 39.7171 27.6022 39.7285 27.44C39.7294 27.4225 39.7311 27.4049 39.7337 27.3874C39.7365 27.3576 39.7495 27.3297 39.7706 27.3084C39.7951 27.2908 39.8246 27.2816 39.8548 27.2821L41.3597 27.3768C41.3609 27.282 41.3591 27.1856 41.3545 27.0874C41.355 27.047 41.3533 27.0066 41.3492 26.9664C41.3412 26.7001 41.3236 26.4353 41.2966 26.1718L36.6185 25.7456M33.2981 21.9989C33.0501 21.8925 32.7952 21.8028 32.5351 21.7306L27.1467 21.2096C27.4045 21.5932 27.6147 22.0067 27.7729 22.4409C27.799 22.5093 27.8235 22.5777 27.8466 22.6462C27.914 22.857 27.9702 23.0713 28.0149 23.2881C28.0179 23.2966 28.0197 23.3055 28.0202 23.3145C28.0208 23.3232 28.0208 23.332 28.0202 23.3408C28.0205 23.3522 28.0205 23.3627 28.0202 23.3723L28.0149 23.3986C28.0058 23.4411 27.9838 23.4797 27.9518 23.5091L26.8415 24.5879C26.8466 24.7634 26.8501 24.9388 26.852 25.1141L35.5661 25.9087C35.6738 24.7682 35.4475 23.8474 34.8873 23.146L34.8926 23.1513C34.4592 22.6471 33.9129 22.2523 33.2981 21.9989M34.8452 24.9194H34.8399C34.8712 24.9497 34.896 24.986 34.9132 25.026C34.9304 25.066 34.9395 25.1089 34.9399 25.1525C34.9404 25.196 34.9323 25.2392 34.9161 25.2796C34.8998 25.3199 34.8757 25.3567 34.8452 25.3877L34.8399 25.393C34.8106 25.4247 34.7747 25.4497 34.7347 25.466C34.6947 25.4824 34.6516 25.4898 34.6084 25.4877C34.5642 25.4884 34.5202 25.4799 34.4795 25.4627C34.4387 25.4455 34.402 25.4199 34.3716 25.3877V25.393C34.3399 25.3612 34.3147 25.3234 34.2975 25.2819C34.2804 25.2404 34.2716 25.1959 34.2716 25.1509C34.2735 25.0637 34.3094 24.9806 34.3716 24.9194C34.4348 24.857 34.5196 24.8212 34.6084 24.8194C34.6526 24.8194 34.6963 24.8282 34.737 24.8454C34.7776 24.8626 34.8144 24.8877 34.8452 24.9194ZM32.5614 24.6037C32.6049 24.6033 32.6479 24.6119 32.6878 24.6292C32.7277 24.6464 32.7635 24.6718 32.793 24.7036C32.8248 24.7343 32.8501 24.7711 32.8673 24.8118C32.8845 24.8525 32.8932 24.8963 32.893 24.9404C32.8939 24.984 32.8855 25.0272 32.8682 25.0671C32.851 25.1071 32.8253 25.1428 32.793 25.172C32.7637 25.2042 32.7279 25.2297 32.688 25.247C32.6481 25.2642 32.6049 25.2727 32.5614 25.272C32.5172 25.2726 32.4733 25.2641 32.4325 25.2468C32.3918 25.2296 32.355 25.2041 32.3246 25.172C32.2927 25.1425 32.2674 25.1067 32.2502 25.0668C32.2329 25.0269 32.2242 24.9839 32.2247 24.9404C32.2259 24.8515 32.2617 24.7665 32.3246 24.7036C32.3875 24.6408 32.4725 24.6049 32.5614 24.6037M28.0044 24.1406C28.0486 24.1404 28.0923 24.1491 28.133 24.1663C28.1737 24.1835 28.2105 24.2088 28.2412 24.2406C28.2735 24.2708 28.2992 24.3075 28.3164 24.3483C28.3336 24.3891 28.3421 24.4331 28.3412 24.4774C28.3425 24.5209 28.3343 24.5643 28.317 24.6043C28.2997 24.6443 28.2738 24.68 28.2412 24.7089V24.7142C28.2102 24.7447 28.1734 24.7688 28.133 24.785C28.0927 24.8013 28.0495 24.8094 28.0059 24.8089C27.9624 24.8084 27.9194 24.7993 27.8794 24.7822C27.8394 24.765 27.8032 24.7401 27.7729 24.7089V24.7142C27.7413 24.6833 27.7163 24.6465 27.6991 24.6058C27.6819 24.5652 27.673 24.5215 27.6729 24.4774C27.6743 24.3885 27.7102 24.3036 27.7729 24.2406C27.834 24.1783 27.9171 24.1424 28.0044 24.1406ZM30.5197 24.9457H30.5145C30.4854 24.9782 30.4497 25.0039 30.4097 25.0212C30.3697 25.0385 30.3265 25.0468 30.2829 25.0457C30.2395 25.0457 30.1966 25.0369 30.1568 25.0197C30.117 25.0025 30.0811 24.9773 30.0514 24.9457C30.0189 24.9155 29.9933 24.8788 29.976 24.838C29.9588 24.7972 29.9504 24.7532 29.9514 24.7089C29.9513 24.6655 29.9602 24.6226 29.9774 24.5828C29.9946 24.543 30.0198 24.5071 30.0514 24.4774C30.0816 24.4458 30.118 24.4206 30.1582 24.4034C30.1985 24.3862 30.2418 24.3774 30.2855 24.3774C30.3293 24.3774 30.3726 24.3862 30.4129 24.4034C30.4531 24.4206 30.4894 24.4458 30.5197 24.4774H30.5145C30.5467 24.5066 30.5723 24.5424 30.5895 24.5823C30.6068 24.6222 30.6153 24.6654 30.6144 24.7089C30.6164 24.7528 30.6089 24.7967 30.5926 24.8375C30.5763 24.8783 30.5514 24.9152 30.5197 24.9457ZM34.3558 20.2677L34.3295 19.7099L20.6479 18.0471L20.6374 18.6311C20.8364 18.645 21.0154 18.6573 21.1741 18.668C21.3668 18.6813 21.53 18.6936 21.6635 18.7048H21.6846C22.024 18.7293 22.3449 18.7609 22.6475 18.7995C22.8422 18.8207 23.0281 18.8453 23.2053 18.8732C23.8401 18.9563 24.4622 19.1171 25.0576 19.3521C25.0689 19.3528 25.0797 19.3564 25.0892 19.3626C25.324 19.475 25.5508 19.6033 25.768 19.7467C25.89 19.8265 26.0057 19.9089 26.1153 19.994C26.2559 20.103 26.3895 20.2208 26.5152 20.3466L26.5363 20.3677C26.553 20.3843 26.5688 20.4019 26.5836 20.4203C26.5856 20.4218 26.5874 20.4235 26.5889 20.4255H26.5942L32.5825 21.0412L33.0245 20.5045V20.5097C33.0812 20.4259 33.1583 20.3577 33.2484 20.3117C33.3386 20.2657 33.439 20.2433 33.5402 20.2466L34.3558 20.2677M40.702 21.9989C40.4169 21.7923 40.1007 21.6325 39.7653 21.5253C38.539 21.2485 36.8744 21.0626 34.7715 20.9675C34.7425 20.9688 34.7127 20.9688 34.6821 20.9675H34.6558C34.654 20.9674 34.6505 20.9674 34.6453 20.9675C34.6252 20.9663 34.6041 20.9646 34.5821 20.9623C34.6025 20.9725 34.6236 20.9813 34.6453 20.9886C34.679 21.004 34.7105 21.018 34.74 21.0307C35.2765 21.2611 35.7654 21.5895 36.1818 21.9989C36.741 22.5658 37.1011 23.2989 37.2079 24.088L42.6279 24.6089C42.4344 24.1833 42.2111 23.7718 41.9596 23.3776C41.6339 22.8407 41.2067 22.3725 40.702 21.9989M31.0144 17.6734C31.0143 17.5558 31.009 17.4313 30.9986 17.2998L29.1463 18.2681C29.1395 18.3019 29.1307 18.3353 29.12 18.368L29.1147 18.4259L30.846 18.6522C30.846 18.6467 30.846 18.6414 30.846 18.6364C30.8572 18.6077 30.8659 18.5849 30.8723 18.568L30.8828 18.5259C30.8844 18.5165 30.888 18.5075 30.8933 18.4996C30.9131 18.4349 30.9272 18.3875 30.9354 18.3575V18.3628C30.9528 18.2803 30.9686 18.1979 30.9828 18.1155V18.1102C30.9826 18.1067 30.9826 18.1032 30.9828 18.0997C31.0038 17.9586 31.0143 17.8161 31.0144 17.6734M31.5932 16.9841C31.6305 17.1997 31.6516 17.4178 31.6563 17.6366C31.6583 17.7966 31.6495 17.9566 31.63 18.1155C31.629 18.1261 31.6273 18.1366 31.6248 18.147C31.6127 18.2462 31.5952 18.3445 31.5722 18.4417C31.5597 18.4923 31.5457 18.5414 31.5301 18.589L31.488 18.7311L32.9403 18.9153C32.9327 18.826 32.9239 18.7435 32.914 18.668C32.888 18.4285 32.8652 18.2584 32.8456 18.1576V18.1523C32.8334 18.0853 32.8212 18.0204 32.8088 17.9576C32.7846 17.8436 32.7583 17.7314 32.7298 17.6208C32.6471 17.2963 32.5416 16.978 32.4141 16.6684C32.4027 16.6354 32.3904 16.6021 32.3773 16.5684L31.5932 16.9841M30.1777 13.8479C30.1226 13.8088 30.0664 13.7702 30.0093 13.7321L20.1375 12.3113C19.8577 12.2946 19.7244 12.4086 19.7376 12.6533C20.0314 13.3823 20.2723 14.1315 20.4585 14.895C20.48 14.9727 20.4993 15.0499 20.5164 15.1266C20.5681 15.345 20.6137 15.5642 20.6532 15.7843C20.676 15.9134 20.6971 16.0414 20.7163 16.1685C20.7401 16.3345 20.7611 16.5011 20.7795 16.6684C20.7821 16.6921 20.7839 16.7149 20.7847 16.7368C20.8097 16.9554 20.829 17.1746 20.8426 17.3945H20.8689L23.2369 17.6945H23.2422C23.2427 17.6758 23.2427 17.6565 23.2422 17.6366C23.2496 17.3181 23.2461 17.0445 23.2317 16.8157C23.2264 16.6909 23.2158 16.5523 23.2001 16.4C23.181 16.2166 23.1547 16.0131 23.1211 15.7896C23.0458 15.3033 22.935 14.8232 22.7896 14.353C22.8967 14.2126 23.038 14.1021 23.2001 14.032C23.3058 13.9885 23.4176 13.9619 23.5316 13.9531L28.9569 14.7056L30.1777 13.8478M21.8951 14.7529V14.7477C21.9043 14.7582 21.9131 14.7688 21.9214 14.7792C21.9813 14.8415 22.0152 14.9243 22.0161 15.0108C22.0184 15.0539 22.0121 15.097 21.9977 15.1376C21.9832 15.1783 21.9609 15.2156 21.9319 15.2476C21.8918 15.3 21.8337 15.3356 21.7688 15.3476C21.7548 15.3493 21.7407 15.3493 21.7267 15.3476C21.6863 15.3496 21.646 15.3426 21.6087 15.3271C21.5714 15.3116 21.538 15.2881 21.5109 15.2581C21.4549 15.1975 21.4215 15.1194 21.4162 15.0371C21.418 15.032 21.418 15.0264 21.4162 15.0213C21.4149 14.9348 21.4448 14.8508 21.5004 14.7845C21.51 14.7766 21.5188 14.7678 21.5267 14.7582C21.5751 14.7115 21.6385 14.6836 21.7056 14.6793C21.7756 14.6801 21.8429 14.7062 21.8951 14.7529M21.0163 13.0638C21.0418 13.0329 21.0737 13.008 21.1099 12.9907C21.146 12.9734 21.1855 12.9642 21.2255 12.9637C21.2656 12.9632 21.3053 12.9714 21.3418 12.9878C21.3784 13.0042 21.4109 13.0283 21.4372 13.0585C21.4962 13.1211 21.5283 13.2042 21.5267 13.2901C21.5288 13.2987 21.5288 13.3077 21.5267 13.3164C21.5285 13.3941 21.5002 13.4695 21.4478 13.5269C21.4176 13.5673 21.3751 13.5968 21.3267 13.611C21.2986 13.6232 21.2679 13.6286 21.2373 13.6268C21.1977 13.6286 21.1583 13.6215 21.1219 13.606C21.0854 13.5905 21.053 13.5671 21.0268 13.5374C20.9677 13.4732 20.9341 13.3898 20.9321 13.3026C20.9302 13.2154 20.9601 13.1305 21.0163 13.0638M21.6898 17.0578C21.6693 17.0113 21.6586 16.9612 21.6583 16.9104C21.6542 16.8228 21.6823 16.7368 21.7372 16.6684C21.7592 16.6461 21.784 16.6266 21.8109 16.6105C21.8523 16.5854 21.8993 16.571 21.9477 16.5684C21.9876 16.5675 22.0272 16.5755 22.0636 16.5919C22.1 16.6083 22.1323 16.6326 22.1582 16.6631C22.219 16.7269 22.2529 16.8117 22.2529 16.8999C22.2557 16.9418 22.2501 16.9838 22.2366 17.0236C22.2231 17.0633 22.2018 17.1 22.1739 17.1314C22.149 17.1636 22.1171 17.1898 22.0807 17.2081C22.0443 17.2263 22.0042 17.2361 21.9635 17.2367C21.9135 17.2384 21.8642 17.2256 21.8214 17.1998C21.8063 17.1908 21.7922 17.1802 21.7793 17.1683C21.7698 17.1602 21.761 17.1514 21.753 17.142C21.7281 17.117 21.7068 17.0887 21.6898 17.0578M27.7203 16.6684C27.7147 16.7261 27.713 16.7841 27.715 16.842C27.7234 16.9425 27.7446 17.0416 27.7781 17.1367C27.7862 17.1574 27.7932 17.1767 27.7992 17.1946L35.7766 12.3376V12.3324C35.6733 12.1559 35.5937 11.9666 35.5398 11.7693C35.4967 11.6004 35.4702 11.4277 35.4609 11.2536V11.2484C35.4538 11.1309 35.4538 11.0132 35.4609 10.8958L28.157 15.9632C28.1539 15.9671 28.1504 15.9706 28.1465 15.9738C28.0377 16.0413 27.9444 16.131 27.8728 16.2371C27.8011 16.3432 27.7527 16.4633 27.7308 16.5894C27.7261 16.6162 27.7226 16.6425 27.7202 16.6684M24.1367 14.6424H24.1315C24.1056 14.6469 24.0806 14.6558 24.0578 14.6687C24.3892 15.082 24.5922 15.5832 24.6419 16.1106C24.6829 16.6602 24.5757 17.2109 24.3314 17.705C24.3102 17.7453 24.2874 17.7857 24.263 17.826L26.6099 18.0997C27.0319 16.7021 27.3002 15.9286 27.4151 15.779L28.257 15.195L24.1367 14.6424M43.612 7.08072C43.3766 6.8207 43.0913 6.61074 42.7731 6.46337C42.4549 6.316 42.1102 6.23425 41.7597 6.22299C41.1939 6.18812 40.6313 6.3297 40.1495 6.62818L39.5654 7.0702C38.7068 7.74401 37.8859 8.41757 37.1027 9.09086L36.3818 9.71179C36.3683 9.72722 36.3543 9.74301 36.3397 9.75915C36.2118 9.90183 36.1038 10.0611 36.0187 10.2327C35.9753 10.3266 35.9383 10.4233 35.9082 10.5222C35.9092 10.5259 35.9092 10.5277 35.9082 10.5274V10.538H35.9029V10.5432L35.8976 10.5485C35.8703 10.6485 35.8509 10.7506 35.8398 10.8537C35.8274 10.9778 35.8256 11.1028 35.8345 11.2273V11.2326C35.84 11.3582 35.8558 11.4831 35.8819 11.6062L38.8024 9.60655C38.7843 9.25584 38.8665 8.90725 39.0392 8.60148C39.0362 8.6429 39.038 8.75166 39.0444 8.92773C39.0525 9.11373 39.0771 9.29864 39.1181 9.48026L39.1128 9.48552C39.1809 9.74299 39.2892 9.98807 39.4338 10.2117C39.5268 10.3575 39.6324 10.4949 39.7495 10.6221C39.8614 10.7423 39.9828 10.8532 40.1126 10.9537C40.1316 10.9637 40.1493 10.9761 40.1653 10.9905C40.1967 11.0134 40.2265 11.0345 40.2547 11.0536C40.2625 11.0578 40.2695 11.0613 40.2758 11.0642C40.6725 11.324 41.1331 11.4696 41.6071 11.4851C41.9328 11.5038 42.2591 11.4628 42.5701 11.3641C42.5713 11.3637 42.5724 11.363 42.5733 11.3621C42.5743 11.3612 42.5749 11.3601 42.5753 11.3588C42.5774 11.3588 42.5794 11.3584 42.5812 11.3574C42.583 11.3565 42.5846 11.3552 42.5858 11.3536C42.929 11.2353 43.2429 11.0451 43.5067 10.7958C43.764 10.5677 43.9708 10.2884 44.114 9.97581C44.2572 9.6632 44.3335 9.32415 44.3381 8.98035C44.3613 8.44581 44.2159 7.9175 43.9224 7.47012C43.8291 7.33255 43.7253 7.20237 43.612 7.08072M42.5122 6.74395C42.5586 6.76002 42.6042 6.77756 42.649 6.79657C42.8735 6.89269 43.0746 7.03631 43.2384 7.21754C43.2118 7.20484 43.1855 7.19256 43.1594 7.1807C42.9945 7.09834 42.8122 7.05683 42.6279 7.05968L40.2284 9.2803C40.2973 9.52028 40.4197 9.74155 40.5862 9.92755L43.8382 8.04896C43.9687 8.23241 44.0302 8.45604 44.0119 8.68042C44.0143 8.74434 44.0126 8.76539 44.0066 8.74356L40.902 10.2117C41.0234 10.298 41.1562 10.3671 41.2966 10.4169L43.8067 9.68022C43.7164 9.94677 43.5499 10.181 43.3278 10.3538C43.1235 10.5485 42.8809 10.6987 42.6155 10.7947C42.3501 10.8907 42.0676 10.9305 41.786 10.9116H41.7807C41.4611 10.9018 41.1479 10.819 40.8651 10.6695C40.6842 10.5719 40.5178 10.4497 40.3705 10.3064L40.3652 10.3012C40.338 10.274 40.3099 10.2459 40.281 10.217V10.2117C40.1942 10.1182 40.115 10.0179 40.0442 9.91176C40.0411 9.90787 40.0376 9.90434 40.0337 9.90124C40.0323 9.89757 40.0305 9.89404 40.0284 9.89071C39.9088 9.70633 39.8199 9.50373 39.7653 9.29083V9.28556C39.7156 9.08787 39.6944 8.88411 39.7022 8.68042C39.7059 8.39997 39.7677 8.12333 39.8836 7.86793C39.9995 7.61254 40.1671 7.38392 40.3757 7.19649C40.5809 7.00294 40.8236 6.85356 41.0888 6.75762C41.354 6.66167 41.6361 6.6212 41.9175 6.6387C42.1196 6.64632 42.3197 6.68173 42.5122 6.74394L42.5122 6.74395Z" fill="white"/>
<path d="M30.0151 39.834C29.9988 39.8322 29.9823 39.834 29.9668 39.8395C29.9513 39.8449 29.9373 39.8537 29.9257 39.8653C29.9141 39.8769 29.9052 39.891 29.8998 39.9065C29.8944 39.9219 29.8925 39.9384 29.8943 39.9547V44.8377C29.892 44.9998 29.9244 45.1605 29.9895 45.3089C30.0546 45.4574 30.1509 45.5901 30.2717 45.6981C30.39 45.8144 30.5304 45.9057 30.6847 45.9667C30.839 46.0276 31.004 46.0569 31.1698 46.0528H31.8641C32.03 46.0576 32.1952 46.0286 32.3496 45.9676C32.5039 45.9066 32.6443 45.815 32.7622 45.6981C32.883 45.59 32.9791 45.4573 33.0442 45.3089C33.1093 45.1604 33.1418 44.9998 33.1396 44.8377V39.9547C33.1414 39.9384 33.1394 39.922 33.134 39.9065C33.1286 39.8911 33.1197 39.877 33.1081 39.8654C33.0965 39.8539 33.0825 39.845 33.0671 39.8396C33.0516 39.8341 33.0351 39.8322 33.0188 39.834H32.1811C32.1648 39.8322 32.1483 39.834 32.1328 39.8395C32.1174 39.8449 32.1033 39.8537 32.0917 39.8653C32.0801 39.8769 32.0713 39.891 32.0658 39.9065C32.0604 39.9219 32.0585 39.9384 32.0603 39.9547V44.8377C32.0635 44.864 32.0606 44.8906 32.0518 44.9154C32.0429 44.9403 32.0284 44.9628 32.0094 44.9811C31.9903 44.9994 31.9673 45.013 31.9421 45.0209C31.9169 45.0288 31.8902 45.0307 31.8641 45.0264H31.1698C31.038 45.0269 30.9726 44.964 30.9736 44.8377V39.9547C30.9753 39.9384 30.9734 39.922 30.968 39.9065C30.9625 39.8911 30.9537 39.877 30.9421 39.8654C30.9305 39.8539 30.9165 39.845 30.901 39.8396C30.8856 39.8341 30.8691 39.8322 30.8528 39.834H30.0151ZM28.483 40.1962C28.2431 39.9618 27.9203 39.8316 27.5849 39.834H26.8905C26.5551 39.8316 26.2323 39.9618 25.9924 40.1962C25.8708 40.3041 25.7736 40.4366 25.7072 40.5849C25.6408 40.7333 25.6068 40.8941 25.6075 41.0566V44.8377C25.6066 45.0003 25.6405 45.1612 25.7068 45.3096C25.7732 45.458 25.8706 45.5905 25.9924 45.6981C26.1106 45.8146 26.251 45.906 26.4053 45.967C26.5597 46.0279 26.7247 46.0571 26.8905 46.0528H27.5849C27.7507 46.0571 27.9158 46.0279 28.0701 45.967C28.2244 45.906 28.3648 45.8146 28.483 45.6981C28.6027 45.5896 28.6977 45.4566 28.7615 45.3082C28.8253 45.1597 28.8564 44.9993 28.8528 44.8378V41.0566C28.8562 40.8951 28.8249 40.7348 28.7612 40.5863C28.6974 40.4379 28.6025 40.3049 28.483 40.1962M27.5849 40.8755C27.7126 40.8751 27.7755 40.9355 27.7736 41.0566V44.8377C27.7776 44.8635 27.7756 44.8898 27.7675 44.9145C27.7595 44.9393 27.7457 44.9618 27.7273 44.9802C27.7089 44.9986 27.6864 45.0124 27.6616 45.0204C27.6369 45.0284 27.6106 45.0305 27.5849 45.0264H26.8905C26.7575 45.0269 26.6895 44.964 26.6868 44.8377V41.0566C26.6895 40.9355 26.7575 40.8751 26.8905 40.8755H27.5849M42.7321 41.0566V42.2566C42.7302 42.4186 42.7629 42.5791 42.828 42.7275C42.8931 42.8758 42.989 43.0086 43.1094 43.117C43.2271 43.2346 43.3673 43.3273 43.5216 43.3896C43.6759 43.4518 43.8412 43.4823 44.0075 43.4793H44.7245C44.7491 43.476 44.774 43.4785 44.7975 43.4864C44.8209 43.4944 44.8422 43.5077 44.8597 43.5252C44.8772 43.5427 44.8905 43.564 44.8984 43.5874C44.9064 43.6109 44.9089 43.6358 44.9056 43.6604V44.8377C44.9061 44.964 44.8457 45.0269 44.7245 45.0264H42.8604C42.7746 45.0271 42.7318 45.0673 42.7321 45.1472V45.9396C42.7318 46.0182 42.7746 46.056 42.8604 46.0529H44.7245C44.8893 46.0573 45.0532 46.0282 45.2063 45.9672C45.3594 45.9062 45.4985 45.8147 45.6151 45.6981C45.7358 45.59 45.8319 45.4573 45.897 45.3089C45.9621 45.1604 45.9947 44.9998 45.9924 44.8378V43.6604C45.9951 43.4997 45.9643 43.3402 45.902 43.192C45.8396 43.0439 45.747 42.9104 45.6302 42.8C45.5113 42.6819 45.3698 42.589 45.2142 42.5267C45.0586 42.4645 44.892 42.4342 44.7245 42.4378H44.0075C43.877 42.4367 43.8116 42.3764 43.8113 42.2566V41.0566C43.8116 40.9355 43.877 40.8751 44.0075 40.8755H45.8792C45.9557 40.8761 45.9934 40.8359 45.9924 40.7547V39.9547C45.9948 39.939 45.9936 39.9229 45.9889 39.9077C45.9842 39.8924 45.9761 39.8785 45.9652 39.8668C45.9543 39.8552 45.9409 39.8462 45.926 39.8405C45.9111 39.8348 45.8951 39.8326 45.8792 39.834H44.0075C43.6723 39.8325 43.3498 39.9626 43.1094 40.1962C42.9888 40.3045 42.8927 40.4372 42.8276 40.5856C42.7625 40.734 42.7299 40.8946 42.732 41.0566M37.4188 41.0566C37.4228 40.8957 37.3926 40.7358 37.3301 40.5875C37.2677 40.4392 37.1744 40.3058 37.0566 40.1962C36.8143 39.9607 36.4888 39.8305 36.1509 39.834H35.449C35.1135 39.831 34.7905 39.9613 34.5509 40.1962C34.4304 40.3046 34.3345 40.4374 34.2694 40.5857C34.2043 40.7341 34.1717 40.8946 34.1735 41.0566V45.9396C34.1761 46.0182 34.2188 46.056 34.3018 46.0529H35.1396C35.216 46.056 35.2538 46.0182 35.2528 45.9396V41.0642C35.2495 41.0379 35.2524 41.0113 35.2613 40.9864C35.2701 40.9615 35.2846 40.939 35.3037 40.9207C35.3227 40.9024 35.3458 40.8888 35.371 40.8809C35.3962 40.8731 35.4229 40.8712 35.449 40.8755H36.1509C36.1766 40.8714 36.2029 40.8735 36.2277 40.8815C36.2524 40.8895 36.2749 40.9033 36.2933 40.9217C36.3117 40.9401 36.3255 40.9626 36.3336 40.9874C36.3416 41.0121 36.3437 41.0385 36.3396 41.0642V45.9396C36.3421 46.0182 36.3849 46.056 36.4679 46.0528H37.3056C37.3821 46.056 37.4198 46.0182 37.4188 45.9396V41.0566M41.3283 40.1962C41.0886 39.9614 40.7657 39.8311 40.4301 39.834H38.5811C38.4981 39.8371 38.4553 39.8774 38.4528 39.9547V45.9396C38.4553 46.0182 38.4981 46.056 38.5811 46.0528H40.4301C40.596 46.0574 40.7611 46.0283 40.9155 45.9673C41.0698 45.9063 41.2102 45.8148 41.3283 45.6981C41.448 45.5896 41.543 45.4566 41.6068 45.3082C41.6706 45.1597 41.7017 44.9993 41.6981 44.8377V41.0566C41.7015 40.8951 41.6702 40.7348 41.6064 40.5863C41.5426 40.4379 41.4478 40.3049 41.3283 40.1962ZM40.4301 40.8755C40.5592 40.875 40.6221 40.9379 40.6188 41.0642V44.8377C40.6221 44.964 40.5592 45.0269 40.4301 45.0264H39.6603C39.643 45.0286 39.6253 45.0268 39.6088 45.0211C39.5922 45.0155 39.5772 45.0061 39.5648 44.9937C39.5524 44.9813 39.543 44.9663 39.5373 44.9497C39.5317 44.9331 39.5298 44.9155 39.532 44.8981V41.0038C39.5301 40.9865 39.532 40.9689 39.5378 40.9524C39.5435 40.936 39.5529 40.921 39.5652 40.9087C39.5776 40.8964 39.5925 40.887 39.609 40.8812C39.6255 40.8755 39.643 40.8735 39.6603 40.8755H40.4301M9.40375 40.8679C9.48023 40.8673 9.51796 40.827 9.51696 40.7472V39.9547C9.51937 39.939 9.51817 39.9229 9.51345 39.9076C9.50873 39.8924 9.50061 39.8785 9.48971 39.8668C9.4788 39.8552 9.4654 39.8462 9.45051 39.8405C9.43562 39.8348 9.41963 39.8326 9.40375 39.834H7.54715C7.20946 39.8314 6.88427 39.9615 6.64148 40.1962C6.52204 40.305 6.42725 40.438 6.36346 40.5864C6.29968 40.7348 6.26838 40.8951 6.27167 41.0566V44.8377C6.26813 44.9993 6.29932 45.1597 6.36312 45.3081C6.42692 45.4565 6.52185 45.5895 6.64148 45.6981C6.7611 45.8147 6.90287 45.9062 7.05842 45.9671C7.21397 46.0281 7.38015 46.0572 7.54715 46.0528H9.40375C9.48023 46.056 9.51796 46.0182 9.51696 45.9396V45.1472C9.51796 45.0673 9.48023 45.0271 9.40375 45.0264H7.54715C7.52107 45.0307 7.49437 45.0288 7.46914 45.021C7.44391 45.0131 7.42086 44.9995 7.40181 44.9812C7.38277 44.9629 7.36825 44.9404 7.35942 44.9155C7.35059 44.8906 7.34768 44.864 7.35092 44.8377V43.5849C7.3489 43.5686 7.35063 43.552 7.35599 43.5364C7.36134 43.5208 7.37017 43.5067 7.38182 43.495C7.39346 43.4834 7.40761 43.4746 7.42318 43.4692C7.43875 43.4639 7.45534 43.4621 7.47168 43.4642H9.40375C9.48023 43.466 9.51796 43.4258 9.51696 43.3434V42.5434C9.51944 42.528 9.51822 42.5122 9.5134 42.4973C9.50859 42.4824 9.50032 42.4689 9.48927 42.4579C9.47822 42.4468 9.46471 42.4386 9.44984 42.4337C9.43497 42.4289 9.41918 42.4277 9.40375 42.4302H7.47167C7.39117 42.4294 7.35092 42.3917 7.35091 42.317V41.0566C7.34767 41.0304 7.35057 41.0038 7.35941 40.9789C7.36824 40.954 7.38275 40.9315 7.4018 40.9131C7.42084 40.8948 7.4439 40.8812 7.46912 40.8734C7.49435 40.8655 7.52106 40.8637 7.54714 40.8679H9.40375M3.07167 41.0642C3.07069 40.9379 3.1361 40.875 3.2679 40.8755H3.96224C3.9883 40.8712 4.015 40.8731 4.04021 40.881C4.06542 40.8889 4.08845 40.9025 4.10749 40.9208C4.12652 40.9391 4.14104 40.9616 4.14988 40.9865C4.15873 41.0113 4.16167 41.0379 4.15846 41.0642V45.9396C4.15846 46.0182 4.19871 46.056 4.27922 46.0528H5.11695C5.13284 46.0561 5.14928 46.0555 5.16489 46.0511C5.1805 46.0467 5.19482 46.0386 5.20666 46.0275C5.21849 46.0164 5.22749 46.0026 5.23289 45.9874C5.23829 45.9721 5.23994 45.9557 5.23771 45.9396V41.0566C5.24087 40.8951 5.20952 40.7349 5.14574 40.5865C5.08197 40.4381 4.98724 40.3051 4.8679 40.1962C4.7482 40.0792 4.60659 39.987 4.45118 39.9248C4.29576 39.8627 4.1296 39.8318 3.96223 39.834H3.2679C2.93012 39.831 2.60475 39.9611 2.36223 40.1962C2.2428 40.305 2.14801 40.438 2.08422 40.5864C2.02044 40.7348 1.98914 40.8951 1.99242 41.0566V45.9396C1.99242 46.0182 2.03267 46.056 2.11318 46.0528H2.95091C2.9668 46.0561 2.98324 46.0555 2.99884 46.0511C3.01445 46.0467 3.02877 46.0386 3.04061 46.0275C3.05244 46.0164 3.06144 46.0026 3.06684 45.9874C3.07224 45.9721 3.0739 45.9557 3.07167 45.9396V41.0642M23.3132 39.834H21.449C21.4327 39.8322 21.4162 39.834 21.4008 39.8395C21.3853 39.8449 21.3712 39.8537 21.3596 39.8653C21.348 39.8769 21.3392 39.891 21.3338 39.9065C21.3283 39.9219 21.3265 39.9384 21.3283 39.9547V45.9245C21.3283 46.0121 21.3685 46.0548 21.449 46.0528H22.2868C22.3723 46.0548 22.415 46.0121 22.4151 45.9245V44.0981C22.414 44.0833 22.4169 44.0685 22.4236 44.0552C22.4302 44.0419 22.4403 44.0307 22.4528 44.0227C22.4696 44.0147 22.4881 44.0113 22.5066 44.0126C22.5251 44.0139 22.543 44.02 22.5585 44.0302L23.2302 44.4755C23.3145 44.5299 23.3836 44.6049 23.4312 44.6933C23.4787 44.7817 23.503 44.8808 23.5019 44.9811V45.9396C23.5019 46.0182 23.5421 46.056 23.6226 46.0528H24.4528C24.5383 46.056 24.5811 46.0182 24.5811 45.9396V44.9811C24.5837 44.7124 24.5179 44.4473 24.3898 44.211C24.2617 43.9746 24.0756 43.7748 23.849 43.6302L23.7132 43.5472C23.7012 43.539 23.692 43.5275 23.6866 43.514C23.6812 43.5006 23.6799 43.4859 23.683 43.4717C23.6851 43.4558 23.691 43.4407 23.7002 43.4275C23.7094 43.4144 23.7216 43.4037 23.7358 43.3962C23.9811 43.3192 24.1953 43.1659 24.3471 42.9585C24.5014 42.7544 24.5837 42.5049 24.5811 42.2491V41.0566C24.5831 40.8946 24.5504 40.734 24.4854 40.5857C24.4203 40.4373 24.3243 40.3045 24.2037 40.1962C24.0866 40.0801 23.9475 39.9882 23.7947 39.9261C23.6418 39.8639 23.4782 39.8326 23.3132 39.834M22.5358 40.8679H23.3132C23.3388 40.8641 23.3651 40.8663 23.3897 40.8744C23.4144 40.8825 23.4368 40.8963 23.4551 40.9146C23.4735 40.933 23.4873 40.9554 23.4954 40.9801C23.5035 41.0047 23.5057 41.0309 23.5019 41.0566V42.2491C23.5026 42.3688 23.4397 42.4292 23.3132 42.4302H22.5358C22.4553 42.4294 22.4151 42.3917 22.4151 42.317V40.9962C22.4151 40.9112 22.4553 40.8684 22.5358 40.8679M16 39.9547C16.0019 39.9374 16 39.9199 15.9942 39.9034C15.9885 39.8869 15.9791 39.872 15.9668 39.8596C15.9544 39.8473 15.9395 39.8379 15.923 39.8322C15.9066 39.8264 15.889 39.8245 15.8717 39.8264H15.0339C15.0171 39.8251 15.0001 39.8275 14.9843 39.8336C14.9685 39.8396 14.9543 39.8492 14.9427 39.8615C14.9311 39.8738 14.9224 39.8886 14.9173 39.9048C14.9122 39.9209 14.9108 39.938 14.9132 39.9547V44.8378C14.9164 44.864 14.9134 44.8906 14.9046 44.9154C14.8957 44.9403 14.8812 44.9628 14.8622 44.9811C14.8432 44.9994 14.8201 45.013 14.7949 45.0209C14.7697 45.0288 14.743 45.0307 14.717 45.0264H14.0151C13.9904 45.0301 13.9653 45.0279 13.9416 45.0201C13.918 45.0123 13.8965 44.9991 13.8789 44.9815C13.8613 44.9639 13.8481 44.9424 13.8402 44.9187C13.8324 44.8951 13.8303 44.8699 13.8339 44.8453V39.9547C13.8359 39.9374 13.8339 39.9199 13.8282 39.9034C13.8224 39.8869 13.8131 39.872 13.8007 39.8596C13.7884 39.8473 13.7734 39.8379 13.757 39.8322C13.7405 39.8264 13.723 39.8245 13.7056 39.8264H12.8603C12.7851 39.8295 12.7474 39.8722 12.7471 39.9547V44.8453C12.7466 44.9664 12.6812 45.0268 12.5509 45.0264H11.849C11.7278 45.0269 11.6674 44.964 11.6679 44.8377V39.9547C11.6681 39.8722 11.6228 39.8295 11.532 39.8264H10.6943C10.6774 39.825 10.6605 39.8275 10.6447 39.8336C10.6289 39.8396 10.6147 39.8492 10.6031 39.8615C10.5915 39.8738 10.5828 39.8886 10.5777 39.9048C10.5726 39.9209 10.5712 39.938 10.5736 39.9547V44.8377C10.5712 44.9998 10.6037 45.1605 10.6688 45.3089C10.7339 45.4574 10.8301 45.5901 10.9509 45.6981C11.0692 45.8144 11.2097 45.9057 11.364 45.9667C11.5182 46.0276 11.6832 46.0569 11.849 46.0528H12.5509C12.7709 46.055 12.9873 45.9977 13.1773 45.8868C13.21 45.8698 13.2462 45.861 13.283 45.861C13.3198 45.861 13.356 45.8698 13.3886 45.8868C13.5783 45.9984 13.795 46.0558 14.0151 46.0528H14.717C14.8829 46.0576 15.048 46.0286 15.2024 45.9676C15.3568 45.9067 15.4972 45.815 15.6151 45.6981C15.7378 45.5912 15.8357 45.4589 15.9022 45.3103C15.9687 45.1617 16.002 45.0005 16 44.8377V39.9547M18.1207 41.0642C18.1235 40.9379 18.1914 40.875 18.3245 40.8755H19.0188C19.1479 40.875 19.2108 40.9379 19.2075 41.0642V41.7962C19.21 41.8748 19.2528 41.9126 19.3358 41.9094H20.1736C20.2513 41.9126 20.289 41.8748 20.2868 41.7962V41.0566C20.2902 40.8951 20.2589 40.7348 20.1951 40.5863C20.1313 40.4379 20.0365 40.3049 19.917 40.1962C19.6773 39.9614 19.3544 39.8311 19.0188 39.834H18.3245C17.9891 39.8316 17.6663 39.9618 17.4264 40.1962C17.3048 40.3041 17.2075 40.4366 17.1412 40.5849C17.0748 40.7333 17.0408 40.8941 17.0415 41.0566V44.8377C17.0406 45.0003 17.0744 45.1612 17.1408 45.3096C17.2072 45.458 17.3046 45.5905 17.4264 45.6981C17.5446 45.8146 17.685 45.906 17.8393 45.967C17.9936 46.0279 18.1586 46.0571 18.3245 46.0528H19.0188C19.1847 46.0574 19.3498 46.0283 19.5042 45.9673C19.6585 45.9063 19.7989 45.8148 19.917 45.6981C20.0367 45.5896 20.1317 45.4566 20.1955 45.3082C20.2593 45.1597 20.2904 44.9993 20.2868 44.8377V43.0793C20.2898 43.0634 20.2891 43.047 20.2846 43.0315C20.2801 43.016 20.272 43.0018 20.2609 42.99C20.2499 42.9782 20.2362 42.9692 20.221 42.9638C20.2058 42.9583 20.1896 42.9565 20.1736 42.9585H18.8C18.7836 42.9563 18.7669 42.9579 18.7512 42.9631C18.7356 42.9684 18.7213 42.9772 18.7097 42.9889C18.698 43.0006 18.6891 43.0149 18.6838 43.0305C18.6786 43.0462 18.677 43.0629 18.6792 43.0793V43.8717C18.6792 43.9503 18.7195 43.988 18.8 43.9849H19.0943C19.172 43.9879 19.2098 44.0307 19.2075 44.1132V44.8377C19.2108 44.964 19.1479 45.0269 19.0188 45.0264H18.3245C18.1914 45.0269 18.1235 44.964 18.1207 44.8377V41.0642Z" fill="white"/>
</g>
<defs>
<clipPath id="clip0_1275_254">
<rect width="48" height="48" fill="white"/>
</clipPath>
</defs>
</svg>
