<svg width="40" height="40" viewBox="0 0 40 40" fill="none" xmlns="http://www.w3.org/2000/svg">
<rect width="40" height="40" rx="20" fill="#FF5500"/>
<g clip-path="url(#clip0_5799_2)">
<path d="M8.69298 19.1262C8.60236 19.1262 8.53439 19.1942 8.52306 19.2961L8.26251 22.468L8.52306 25.5379C8.53439 25.6285 8.60236 25.7078 8.69298 25.7078C8.78361 25.7078 8.85158 25.6399 8.8629 25.5379L9.15743 22.468L8.8629 19.2961C8.85158 19.1942 8.77228 19.1262 8.69298 19.1262Z" fill="white"/>
<path d="M9.84844 19.3301C9.74648 19.3301 9.65586 19.4094 9.65586 19.5227L9.41797 22.468L9.65586 25.5605C9.66719 25.6738 9.74648 25.7531 9.84844 25.7531C9.95039 25.7531 10.0297 25.6738 10.041 25.5605L10.3129 22.468L10.041 19.5227C10.0297 19.4094 9.95039 19.3301 9.84844 19.3301Z" fill="white"/>
<path d="M6.4047 19.7379C6.34806 19.7379 6.29142 19.7832 6.28009 19.8512L5.99689 22.4566L6.28009 25.0055C6.29142 25.0734 6.33673 25.1187 6.4047 25.1187C6.46134 25.1187 6.51798 25.0734 6.52931 25.0055L6.85783 22.4566L6.52931 19.8512C6.50665 19.7945 6.46134 19.7379 6.4047 19.7379Z" fill="white"/>
<path d="M5.32851 20.7348C5.27187 20.7348 5.21523 20.7801 5.21523 20.8481L5 22.468L5.21523 24.0539C5.22656 24.1219 5.27187 24.1672 5.32851 24.1672C5.38516 24.1672 5.43047 24.1219 5.4418 24.0539L5.69102 22.468L5.4418 20.8594C5.43047 20.7914 5.38516 20.7348 5.32851 20.7348Z" fill="white"/>
<path d="M12.1933 16.3394C12.0574 16.3394 11.9554 16.4414 11.9441 16.5773L11.7289 22.468L11.9441 25.5492C11.9554 25.6851 12.0574 25.7871 12.1933 25.7871C12.3293 25.7871 12.4312 25.6851 12.4426 25.5492L12.6804 22.468L12.4426 16.5773C12.4312 16.4414 12.3179 16.3394 12.1933 16.3394Z" fill="white"/>
<path d="M7.53749 19.2281C7.45819 19.2281 7.40155 19.2848 7.39022 19.3754L7.11835 22.468L7.39022 25.4473C7.40155 25.5266 7.45819 25.5945 7.53749 25.5945C7.61678 25.5945 7.67343 25.5379 7.68475 25.4586L7.99061 22.4793L7.68475 19.3867C7.67343 19.2961 7.61678 19.2281 7.53749 19.2281Z" fill="white"/>
<path d="M11.0152 17.4609C10.9019 17.4609 10.8 17.5516 10.8 17.6762L10.5734 22.468L10.8 25.5605C10.8113 25.6852 10.9019 25.7758 11.0152 25.7758C11.1285 25.7758 11.2305 25.6852 11.2305 25.5605L11.491 22.468L11.2305 17.6762C11.2305 17.5516 11.1285 17.4609 11.0152 17.4609Z" fill="white"/>
<path d="M18.2086 14.7309C18.0047 14.7309 17.8461 14.8895 17.8461 15.0934L17.7101 22.4566L17.8461 25.4133C17.8461 25.6172 18.016 25.7758 18.2086 25.7758C18.4125 25.7758 18.5711 25.6059 18.5711 25.4133L18.7297 22.4566L18.5711 15.0934C18.5824 14.9008 18.4125 14.7309 18.2086 14.7309Z" fill="white"/>
<path d="M13.3715 15.8184C13.2242 15.8184 13.1109 15.9316 13.0996 16.0902L12.8957 22.468L13.0996 25.5152C13.0996 25.6625 13.2242 25.7758 13.3715 25.7758C13.5187 25.7758 13.632 25.6625 13.6433 25.5039L13.8699 22.4566L13.6433 16.0789C13.6433 15.943 13.5187 15.8184 13.3715 15.8184Z" fill="white"/>
<path d="M30.4316 18.6617C29.9445 18.6617 29.4801 18.7637 29.0496 18.9336C28.7664 15.7164 26.0703 13.2016 22.7851 13.2016C21.9808 13.2016 21.1992 13.3602 20.5082 13.632C20.2363 13.734 20.1683 13.8473 20.1683 14.0512V25.368C20.1683 25.5832 20.3383 25.7645 20.5535 25.7871C20.5648 25.7871 30.375 25.7871 30.4429 25.7871C32.414 25.7871 34.0113 24.1899 34.0113 22.2188C34 20.259 32.4027 18.6617 30.4316 18.6617Z" fill="white"/>
<path d="M19.432 14.0399C19.2168 14.0399 19.0469 14.2211 19.0355 14.4363L18.877 22.468L19.0355 25.3793C19.0355 25.5945 19.2168 25.7645 19.432 25.7645C19.6473 25.7645 19.8172 25.5832 19.8285 25.368L19.9984 22.4453L19.8285 14.4137C19.8172 14.2211 19.6473 14.0399 19.432 14.0399Z" fill="white"/>
<path d="M14.5723 15.5805C14.4137 15.5805 14.2891 15.7051 14.2777 15.875L14.0965 22.468L14.2777 25.4926C14.2777 25.6512 14.4137 25.7871 14.5723 25.7871C14.7309 25.7871 14.8555 25.6625 14.8668 25.4926L15.0707 22.468L14.8668 15.875C14.8555 15.7051 14.7309 15.5805 14.5723 15.5805Z" fill="white"/>
<path d="M15.7731 15.7278C15.6031 15.7278 15.4559 15.8637 15.4559 16.0449L15.2859 22.468L15.4559 25.4699C15.4559 25.6512 15.6031 25.7871 15.7731 25.7871C15.943 25.7871 16.0902 25.6512 16.0902 25.4699L16.2828 22.468L16.0902 16.0449C16.0902 15.8637 15.9543 15.7278 15.7731 15.7278Z" fill="white"/>
<path d="M16.9851 15.9316C16.7926 15.9316 16.6453 16.0789 16.6453 16.2715L16.4867 22.468L16.6453 25.4473C16.6453 25.6398 16.8039 25.7871 16.9851 25.7871C17.1777 25.7871 17.325 25.6398 17.325 25.4473L17.4949 22.468L17.325 16.2715C17.325 16.0902 17.1777 15.9316 16.9851 15.9316Z" fill="white"/>
</g>
<defs>
<clipPath id="clip0_5799_2">
<rect width="29" height="29" fill="white" transform="translate(5 5)"/>
</clipPath>
</defs>
</svg>
